<!DOCTYPE svg PUBLIC "-//W3C//DTD SVG 20010904//EN" "http://www.w3.org/TR/2001/REC-SVG-20010904/DTD/svg10.dtd">
<svg version="1.0" xmlns="http://www.w3.org/2000/svg" width="94px" height="102px" viewBox="0 0 940 1020" preserveAspectRatio="xMidYMid meet">
<g id="layer101" fill="#212121" stroke="none">
 <path d="M50 515 l0 -395 250 0 250 0 0 395 0 395 -250 0 -250 0 0 -395z m200 330 c0 -12 -14 -15 -69 -15 -65 0 -90 8 -74 24 3 3 37 6 75 6 54 0 68 -3 68 -15z m230 0 c0 -12 -14 -15 -70 -15 -56 0 -70 3 -70 15 0 12 14 15 70 15 56 0 70 -3 70 -15z m0 -330 l0 -255 -191 0 c-170 0 -190 2 -185 16 3 9 6 123 6 255 l0 239 185 0 185 0 0 -255z m0 -335 c0 -6 -70 -10 -190 -10 -120 0 -190 4 -190 10 0 6 70 10 190 10 120 0 190 -4 190 -10z"/>
 <path d="M660 733 c0 -16 10 -36 23 -48 33 -28 81 -94 74 -101 -3 -3 -11 5 -18 18 -20 38 -69 80 -86 74 -8 -3 -19 -6 -24 -6 -18 0 -9 -55 10 -67 26 -16 54 -77 47 -101 -4 -10 -20 -34 -36 -52 -37 -41 -38 -62 -4 -81 26 -13 28 -12 70 36 30 34 44 44 44 32 0 -10 -23 -41 -51 -69 -59 -59 -64 -91 -13 -96 27 -3 39 5 88 59 l56 62 0 120 c0 111 -2 121 -22 142 -13 12 -40 41 -61 64 -28 31 -45 41 -67 41 -26 0 -30 -4 -30 -27z m120 -230 c0 -24 -4 -43 -10 -43 -6 0 -10 26 -10 58 0 40 3 53 10 42 5 -8 10 -34 10 -57z"/>
 </g>
<g id="layer102" fill="#696969" stroke="none">
 <path d="M510 901 c0 -6 5 -13 10 -16 14 -8 14 -732 0 -740 -17 -10 -11 -25 10 -25 20 0 20 7 20 395 0 388 0 395 -20 395 -11 0 -20 -4 -20 -9z"/>
 <path d="M93 883 c-7 -2 -13 -20 -13 -38 l0 -34 95 -3 c53 -2 148 -1 213 2 110 5 117 6 120 26 2 12 -4 29 -13 38 -14 14 -43 16 -203 15 -103 0 -193 -3 -199 -6z m157 -38 c0 -12 -14 -15 -69 -15 -65 0 -90 8 -74 24 3 3 37 6 75 6 54 0 68 -3 68 -15z m60 6 c0 -14 -18 -23 -30 -16 -6 4 -8 11 -5 16 8 12 35 12 35 0z m170 -6 c0 -12 -14 -15 -70 -15 -56 0 -70 3 -70 15 0 12 14 15 70 15 56 0 70 -3 70 -15z"/>
 <path d="M85 777 c-3 -7 -4 -131 -3 -277 l3 -265 199 -3 c138 -2 203 1 212 9 19 16 21 518 2 537 -18 18 -407 17 -413 -1z m395 -262 l0 -255 -191 0 c-170 0 -190 2 -185 16 3 9 6 123 6 255 l0 239 185 0 185 0 0 -255z"/>
 <path d="M660 733 c0 -16 10 -36 23 -48 33 -28 81 -94 74 -101 -3 -3 -11 5 -18 18 -20 38 -69 80 -86 74 -8 -3 -19 -6 -24 -6 -18 0 -9 -55 10 -67 26 -16 54 -77 47 -101 -4 -10 -20 -34 -36 -52 -37 -41 -38 -62 -4 -81 26 -13 28 -12 70 36 30 34 44 44 44 32 0 -10 -23 -41 -51 -69 -59 -59 -64 -91 -13 -96 27 -3 39 5 88 59 44 50 56 69 56 96 0 18 -2 33 -5 33 -2 0 -13 -19 -23 -43 -20 -46 -91 -127 -110 -127 -22 0 -12 26 24 61 49 46 74 99 74 154 0 60 -21 107 -75 171 -31 36 -42 55 -33 60 16 10 89 -72 120 -133 l23 -48 3 38 c3 30 -2 44 -20 61 -13 13 -40 42 -61 65 -28 31 -45 41 -67 41 -26 0 -30 -4 -30 -27z m50 -130 c19 -30 30 -60 30 -83 0 -37 -50 -130 -69 -130 -21 0 -22 22 -3 43 50 55 52 104 7 163 -29 37 -32 54 -10 54 9 0 29 -21 45 -47z m70 -100 c0 -24 -4 -43 -10 -43 -6 0 -10 26 -10 58 0 40 3 53 10 42 5 -8 10 -34 10 -57z"/>
 <path d="M93 213 c-19 -7 -16 -60 3 -67 9 -3 98 -6 199 -6 154 0 186 3 199 16 21 21 20 41 -3 54 -20 10 -374 13 -398 3z m387 -33 c0 -6 -70 -10 -190 -10 -120 0 -190 4 -190 10 0 6 70 10 190 10 120 0 190 -4 190 -10z"/>
 </g>
<g id="layer103" fill="#9f9f9f" stroke="none">
 <path d="M518 898 c17 -17 17 -749 0 -766 -9 -9 -7 -12 10 -12 l22 0 0 395 0 395 -22 0 c-17 0 -19 -3 -10 -12z"/>
 <path d="M84 866 c-3 -8 -4 -23 -2 -33 3 -17 18 -18 208 -18 l205 0 0 30 0 30 -203 3 c-170 2 -203 0 -208 -12z m223 -12 c8 -21 -13 -42 -28 -27 -13 13 -5 43 11 43 6 0 13 -7 17 -16z m-57 -9 c0 -12 -14 -15 -69 -15 -65 0 -90 8 -74 24 3 3 37 6 75 6 54 0 68 -3 68 -15z m230 0 c0 -12 -14 -15 -70 -15 -56 0 -70 3 -70 15 0 12 14 15 70 15 56 0 70 -3 70 -15z"/>
 <path d="M85 767 c-3 -7 -4 -127 -3 -267 l3 -255 205 0 205 0 3 268 2 267 -205 0 c-157 0 -207 -3 -210 -13z m395 -252 l0 -255 -191 0 c-170 0 -190 2 -185 16 3 9 6 123 6 255 l0 239 185 0 185 0 0 -255z"/>
 <path d="M660 733 c0 -16 10 -36 23 -48 33 -28 81 -94 74 -101 -3 -3 -11 5 -18 18 -20 38 -69 80 -86 74 -8 -3 -19 -6 -24 -6 -18 0 -9 -55 10 -67 26 -16 54 -77 47 -101 -4 -10 -20 -34 -36 -52 -37 -41 -38 -62 -4 -81 26 -13 28 -12 70 36 30 34 44 44 44 32 0 -10 -23 -41 -51 -69 -59 -59 -64 -91 -13 -96 27 -3 39 5 88 59 34 38 56 71 56 86 0 31 -6 29 -26 -8 -24 -47 -94 -119 -115 -119 -28 0 -23 23 11 48 16 12 42 43 57 69 52 89 30 195 -56 277 -35 34 -40 56 -12 56 22 0 68 -50 108 -117 27 -47 28 -47 31 -20 2 19 -4 36 -20 51 -13 13 -40 42 -61 65 -28 31 -45 41 -67 41 -26 0 -30 -4 -30 -27z m39 -108 c43 -49 56 -104 36 -152 -18 -43 -52 -83 -72 -83 -19 0 -16 15 12 56 35 51 33 100 -5 153 -28 38 -32 61 -10 61 4 0 22 -16 39 -35z m81 -122 c0 -24 -4 -43 -10 -43 -6 0 -10 26 -10 58 0 40 3 53 10 42 5 -8 10 -34 10 -57z"/>
 <path d="M84 195 c-4 -8 -4 -22 0 -30 5 -13 34 -15 208 -13 l203 3 0 25 0 25 -203 3 c-174 2 -203 0 -208 -13z m396 -15 c0 -6 -70 -10 -190 -10 -120 0 -190 4 -190 10 0 6 70 10 190 10 120 0 190 -4 190 -10z"/>
 </g>
<g id="layer104" fill="#e3e3e3" stroke="none">
 <path d="M528 898 c17 -17 17 -749 0 -766 -9 -9 -8 -12 5 -12 16 0 17 30 17 395 0 365 -1 395 -17 395 -13 0 -14 -3 -5 -12z"/>
 <path d="M393 872 c-70 -3 -73 -4 -73 -27 0 -25 1 -25 85 -25 83 0 85 1 85 24 0 30 -7 32 -97 28z m87 -27 c0 -12 -14 -15 -70 -15 -56 0 -70 3 -70 15 0 12 14 15 70 15 56 0 70 -3 70 -15z"/>
 <path d="M90 845 c0 -25 1 -25 85 -25 84 0 85 0 85 25 0 25 -1 25 -85 25 -84 0 -85 0 -85 -25z m160 0 c0 -12 -14 -15 -69 -15 -65 0 -90 8 -74 24 3 3 37 6 75 6 54 0 68 -3 68 -15z"/>
 <path d="M97 774 c-4 -4 -7 -124 -7 -266 l0 -258 200 0 200 0 -2 263 -3 262 -191 3 c-104 1 -193 -1 -197 -4z m383 -259 l0 -255 -191 0 c-170 0 -190 2 -185 16 3 9 6 123 6 255 l0 239 185 0 185 0 0 -255z"/>
 <path d="M660 730 c0 -18 6 -33 15 -36 21 -8 19 -24 -2 -22 -43 3 -53 -2 -53 -30 0 -17 8 -32 20 -40 12 -7 25 -24 31 -39 5 -14 13 -23 16 -19 4 3 -8 27 -26 53 -29 41 -31 47 -17 61 14 15 19 13 46 -13 41 -39 60 -80 60 -127 0 -45 -12 -71 -48 -110 -50 -54 -79 -24 -38 37 14 21 26 43 26 49 0 6 -8 -1 -18 -15 -9 -14 -25 -34 -34 -43 -26 -25 -22 -50 8 -67 26 -13 28 -12 70 36 30 34 44 44 44 32 0 -10 -23 -41 -51 -69 -59 -59 -64 -91 -13 -96 27 -3 39 5 88 59 31 34 56 70 55 78 0 11 -5 9 -17 -9 -35 -52 -105 -120 -124 -120 -34 0 -33 30 1 57 46 36 91 119 91 168 0 53 -29 114 -80 169 -44 47 -48 76 -11 76 21 0 94 -78 114 -122 13 -31 27 -37 27 -12 0 9 -10 27 -22 39 -13 12 -40 41 -61 64 -28 31 -45 41 -67 41 -27 0 -30 -3 -30 -30z m74 -101 c15 -22 26 -43 23 -45 -3 -3 -11 5 -18 18 -6 12 -15 25 -18 28 -16 13 -32 40 -25 40 5 0 22 -19 38 -41z m46 -126 c0 -24 -4 -43 -10 -43 -6 0 -10 26 -10 58 0 40 3 53 10 42 5 -8 10 -34 10 -57z"/>
 <path d="M90 180 c0 -18 9 -19 190 -22 105 -2 195 -1 200 0 6 2 10 12 10 23 0 18 -10 19 -200 19 -192 0 -200 -1 -200 -20z m390 0 c0 -6 -70 -10 -190 -10 -120 0 -190 4 -190 10 0 6 70 10 190 10 120 0 190 -4 190 -10z"/>
 </g>

</svg>