<!DOCTYPE svg PUBLIC "-//W3C//DTD SVG 20010904//EN" "http://www.w3.org/TR/2001/REC-SVG-20010904/DTD/svg10.dtd">
<svg version="1.0" xmlns="http://www.w3.org/2000/svg" width="943px" height="1200px" viewBox="0 0 9430 12000" preserveAspectRatio="xMidYMid meet">
<g id="layer101" fill="#999999" stroke="none">
 <path d="M3260 11989 c-232 -24 -281 -29 -338 -29 -46 0 -64 -4 -68 -15 -5 -12 -32 -15 -153 -15 -100 0 -161 -5 -195 -15 -27 -8 -88 -15 -136 -15 -78 0 -88 -2 -93 -19 -4 -18 -17 -20 -128 -25 -387 -18 -368 -16 -379 -37 -8 -14 -21 -19 -53 -19 -23 0 -64 -7 -91 -15 -27 -8 -77 -15 -111 -15 -43 0 -66 -5 -75 -15 -7 -8 -27 -15 -45 -15 -18 0 -38 -7 -45 -15 -9 -10 -32 -15 -74 -15 -56 0 -65 -3 -91 -30 -26 -27 -35 -30 -94 -30 -64 0 -171 -32 -171 -52 0 -4 -8 -8 -17 -8 -10 0 -27 -7 -37 -15 -11 -8 -32 -15 -47 -15 -16 0 -40 -12 -59 -30 -27 -25 -40 -30 -82 -30 -39 0 -51 -4 -54 -18 -6 -22 -58 -52 -90 -52 -14 0 -27 -7 -30 -15 -4 -8 -12 -15 -19 -15 -7 0 -15 -7 -19 -15 -3 -9 -18 -15 -36 -15 -18 0 -33 -6 -36 -15 -4 -8 -11 -15 -18 -15 -6 0 -24 -16 -39 -35 -15 -19 -35 -35 -43 -35 -19 0 -104 -70 -104 -86 0 -7 -7 -14 -15 -18 -8 -3 -15 -13 -15 -23 -1 -18 -22 -53 -33 -53 -3 0 -17 -11 -31 -24 -19 -17 -26 -34 -26 -60 0 -29 -4 -36 -19 -36 -54 0 -51 48 -51 -726 l0 -714 25 0 c22 0 25 -4 25 -33 0 -40 20 -87 38 -87 7 0 12 -13 12 -32 0 -18 7 -42 15 -52 8 -11 15 -32 15 -47 0 -43 10 -59 36 -59 18 0 24 -6 24 -21 0 -13 25 -46 63 -84 35 -34 72 -80 83 -103 11 -24 26 -42 35 -42 19 0 29 -20 29 -56 0 -15 7 -27 18 -30 9 -3 24 -10 32 -15 8 -5 22 -12 30 -15 8 -3 31 -26 50 -49 19 -24 41 -44 48 -44 7 -1 22 -17 33 -36 12 -19 29 -35 39 -35 9 0 51 -34 93 -75 46 -45 85 -75 97 -75 15 0 20 -6 18 -17 -4 -25 10 -43 32 -43 10 0 42 -16 71 -35 30 -19 63 -35 74 -35 12 0 34 -13 51 -28 16 -16 37 -31 47 -35 9 -4 22 -18 27 -32 8 -21 16 -25 49 -25 22 0 44 -6 51 -15 7 -8 21 -15 31 -15 10 0 20 -9 24 -19 4 -12 26 -25 65 -37 33 -11 60 -24 60 -31 0 -16 14 -24 69 -38 27 -7 46 -17 46 -25 0 -17 41 -40 71 -40 12 0 27 -7 34 -15 7 -8 20 -15 30 -15 10 0 20 -7 24 -15 3 -10 19 -15 45 -15 22 0 42 -4 45 -9 3 -5 22 -12 41 -15 20 -4 39 -14 42 -22 3 -9 20 -14 48 -14 29 0 45 -5 49 -15 3 -8 14 -15 25 -15 10 0 21 -6 24 -14 3 -7 27 -16 53 -20 26 -3 79 -21 118 -40 84 -40 133 -56 168 -56 14 0 28 -7 32 -15 3 -8 12 -15 20 -15 8 0 16 -4 18 -10 2 -5 41 -12 86 -16 56 -5 86 -12 89 -21 3 -7 15 -13 28 -13 12 0 28 -7 35 -15 9 -10 32 -15 74 -15 38 -1 68 -6 80 -15 11 -8 38 -15 61 -15 29 0 44 -5 53 -20 10 -17 23 -20 87 -20 70 0 77 -2 107 -30 19 -19 41 -30 59 -30 16 0 29 -4 29 -9 0 -5 9 -13 20 -16 11 -4 20 -15 20 -27 0 -13 10 -24 30 -31 22 -8 35 -23 46 -54 11 -28 23 -43 34 -43 20 0 30 -19 30 -56 0 -13 9 -29 20 -36 11 -7 20 -23 20 -36 0 -12 7 -25 15 -28 10 -4 15 -20 15 -45 0 -26 5 -42 15 -45 20 -8 23 -244 3 -244 -17 0 -37 -45 -31 -69 4 -15 -1 -20 -24 -23 -23 -2 -29 -8 -31 -33 -2 -17 -16 -41 -33 -57 -16 -15 -32 -41 -35 -57 -4 -17 -15 -33 -25 -36 -11 -4 -19 -12 -19 -20 0 -7 -7 -16 -16 -19 -11 -4 -14 -13 -11 -27 4 -15 0 -23 -12 -26 -18 -5 -51 -66 -51 -95 0 -8 -16 -30 -35 -49 -19 -19 -35 -40 -35 -47 0 -29 -26 -92 -38 -92 -15 0 -16 -3 -32 -87 -8 -41 -18 -63 -26 -63 -10 0 -14 -14 -14 -50 0 -39 -3 -50 -16 -50 -12 0 -15 -7 -12 -24 4 -19 0 -26 -19 -30 -20 -6 -23 -13 -23 -51 0 -24 -4 -47 -10 -50 -6 -3 -10 -23 -10 -43 0 -26 -6 -41 -20 -50 -12 -7 -20 -23 -20 -40 0 -16 -7 -37 -15 -48 -8 -10 -15 -37 -15 -60 0 -42 -14 -64 -40 -64 -8 0 -30 -16 -47 -35 -19 -20 -42 -35 -55 -35 -15 0 -29 -11 -40 -30 -9 -17 -23 -30 -30 -30 -7 0 -22 -13 -32 -28 -11 -16 -32 -37 -48 -48 -19 -13 -28 -27 -28 -46 0 -17 -5 -28 -14 -28 -16 0 -56 -76 -56 -106 0 -10 -14 -30 -30 -43 -25 -19 -30 -30 -30 -66 0 -26 -6 -47 -15 -55 -8 -7 -15 -18 -15 -25 0 -7 -7 -15 -15 -19 -10 -4 -15 -19 -15 -49 0 -24 -5 -48 -11 -54 -6 -6 -14 -41 -16 -77 -4 -46 -10 -66 -19 -66 -10 0 -14 -16 -14 -63 0 -37 -5 -68 -12 -75 -18 -18 -24 -480 -8 -577 6 -38 14 -89 17 -113 4 -33 11 -45 28 -52 12 -5 32 -22 45 -39 18 -27 19 -33 7 -45 -8 -8 -17 -45 -20 -81 -4 -37 -12 -73 -18 -81 -6 -8 -9 -27 -7 -44 3 -22 0 -31 -14 -36 -14 -4 -18 -16 -18 -57 0 -29 -7 -90 -15 -137 -9 -47 -14 -105 -13 -130 2 -36 -1 -46 -15 -48 -16 -3 -17 -30 -17 -347 0 -311 2 -344 16 -347 14 -3 17 -16 15 -88 -1 -47 5 -121 14 -165 8 -44 15 -108 15 -143 0 -46 4 -64 15 -68 9 -4 15 -19 15 -35 0 -16 7 -46 15 -66 8 -19 15 -62 15 -94 0 -32 6 -64 12 -71 29 -32 48 -82 48 -129 0 -41 5 -53 30 -77 23 -23 30 -38 30 -68 0 -33 5 -43 33 -61 28 -19 33 -29 34 -65 1 -24 7 -44 13 -46 5 -2 10 -17 10 -33 0 -21 5 -29 18 -29 17 0 21 -11 49 -112 2 -10 9 -18 15 -18 20 0 37 -34 38 -73 0 -26 5 -40 17 -44 29 -11 53 -42 53 -68 0 -15 6 -25 14 -25 17 0 46 -43 46 -69 0 -14 8 -21 28 -23 23 -3 27 -7 24 -31 -2 -18 3 -29 14 -34 22 -8 54 -40 54 -53 0 -5 4 -10 10 -10 8 0 80 -66 80 -74 0 -2 30 -32 66 -67 92 -88 124 -122 124 -131 0 -5 13 -8 28 -8 32 0 52 -16 52 -42 0 -13 8 -18 30 -18 18 0 33 -6 36 -15 4 -8 15 -15 25 -15 11 0 22 -7 25 -15 4 -8 18 -15 33 -15 15 0 34 -9 44 -20 9 -11 24 -20 32 -20 8 0 15 -4 15 -10 0 -5 12 -10 28 -10 15 0 42 -9 60 -20 18 -11 46 -20 63 -20 17 0 32 -6 35 -15 4 -8 12 -15 20 -15 8 0 14 -4 14 -9 0 -6 32 -13 71 -17 58 -5 73 -10 76 -25 5 -18 26 -19 478 -19 451 0 473 1 477 18 4 15 19 20 69 25 35 4 68 12 73 17 6 6 22 10 38 10 15 0 31 6 35 12 10 15 97 58 119 58 15 0 59 25 82 47 7 7 28 13 46 13 25 0 42 10 76 45 24 25 49 45 56 45 7 0 14 7 18 15 3 8 11 15 18 15 18 0 57 43 81 88 20 39 73 92 91 92 6 0 117 1 246 3 198 2 241 5 272 20 21 9 58 17 83 17 30 0 45 4 45 13 0 7 24 21 53 31 28 10 65 31 81 47 19 18 40 29 58 29 16 0 31 7 34 15 4 8 13 15 20 15 8 0 17 6 20 14 3 8 44 54 90 103 47 48 97 100 111 115 15 16 23 35 21 50 -3 24 16 50 45 61 10 4 17 17 17 32 0 37 17 65 40 65 17 0 20 7 20 44 0 30 5 46 15 50 10 3 15 19 15 43 0 29 8 45 30 67 23 22 30 38 30 67 0 23 5 39 15 43 8 3 15 16 15 30 0 13 5 26 11 28 6 2 14 37 17 78 2 41 11 84 18 95 8 11 14 39 14 62 0 32 4 43 15 43 12 0 15 17 15 89 0 48 5 103 11 121 7 18 12 87 13 154 1 105 3 122 19 128 16 7 17 35 17 398 0 365 -1 390 -17 390 -16 0 -18 15 -18 160 -1 111 -5 164 -13 172 -8 8 -12 45 -12 100 0 72 -3 88 -15 88 -10 0 -15 10 -15 31 0 22 -5 32 -19 36 -19 5 -19 6 0 43 11 21 27 41 35 44 8 3 14 16 14 29 0 14 7 41 16 62 8 21 14 56 12 79 -2 32 1 42 15 44 16 3 17 28 17 318 0 306 -1 314 -20 314 -16 0 -19 5 -14 29 3 16 -1 61 -10 99 -9 39 -16 87 -16 106 0 25 -4 36 -15 36 -13 0 -20 14 -12 23 1 2 -5 14 -14 28 -9 13 -20 43 -24 67 -4 28 -16 49 -33 63 -15 11 -27 29 -28 39 -1 23 -35 69 -51 70 -7 0 -16 19 -19 42 -4 24 -17 52 -31 66 -12 12 -23 25 -23 27 0 2 -26 30 -58 62 -32 32 -65 74 -74 93 -9 20 -35 51 -57 69 -22 19 -43 43 -47 53 -3 10 -12 18 -20 18 -9 0 -14 11 -14 30 0 17 -5 30 -12 30 -17 0 -38 46 -38 81 0 15 -7 40 -15 55 -8 16 -15 46 -15 67 0 30 -4 40 -19 44 -25 6 -30 21 -38 107 -5 66 -8 73 -37 91 -26 17 -31 27 -34 68 -2 33 -7 47 -18 47 -7 0 -14 7 -14 15 0 9 -7 27 -16 40 -9 13 -13 29 -9 35 4 7 -8 25 -29 42 -27 22 -37 38 -36 57 4 48 0 56 -30 69 -18 8 -30 21 -30 33 0 10 -4 19 -10 19 -5 0 -10 11 -10 25 0 18 -7 28 -25 35 -18 7 -28 22 -37 55 -8 29 -18 45 -28 45 -10 0 -20 16 -28 45 -7 25 -17 45 -23 45 -18 0 -38 32 -39 62 0 35 -9 58 -24 58 -23 0 -46 61 -46 120 0 32 -4 62 -10 65 -5 3 -10 18 -10 32 0 16 -7 27 -20 30 -12 3 -20 14 -20 27 0 12 9 27 20 34 11 7 20 23 20 36 0 14 5 28 10 31 6 3 10 24 10 46 0 28 4 39 15 39 9 0 15 9 15 24 0 17 24 49 81 105 79 79 83 81 129 81 33 0 50 5 53 15 10 26 76 45 153 45 59 0 75 3 86 18 9 13 31 21 72 25 32 3 64 11 69 16 6 6 37 11 68 11 41 0 58 4 63 15 3 8 16 15 30 15 13 0 26 6 29 13 3 9 32 16 83 21 43 3 83 11 88 16 6 6 18 10 27 10 9 0 19 7 23 15 3 9 18 15 35 15 36 0 141 38 141 51 0 5 14 9 31 9 17 0 42 9 56 20 14 11 41 20 60 20 21 0 36 6 39 15 4 8 14 15 24 15 10 0 23 7 30 15 9 10 32 15 74 15 58 0 64 2 84 30 19 24 30 30 62 30 21 0 43 6 47 13 10 15 68 43 108 52 17 4 44 17 62 31 17 13 37 24 43 24 6 0 24 14 41 31 17 17 44 33 63 36 19 3 48 18 66 34 17 16 37 29 44 29 8 0 19 7 26 15 7 8 25 15 41 15 18 0 29 5 29 14 0 8 11 17 25 20 14 4 25 11 25 16 0 6 18 10 40 10 34 0 41 4 46 25 3 14 11 25 18 25 6 0 34 18 63 39 28 22 64 41 79 43 21 2 30 10 34 28 4 16 14 26 28 28 12 2 29 17 39 33 10 16 25 29 35 29 10 0 18 3 18 8 0 4 15 24 33 45 23 26 41 37 60 37 20 0 27 5 27 18 0 20 29 52 48 52 6 0 17 12 24 28 10 20 23 28 48 32 29 4 35 9 35 30 0 20 6 26 28 28 20 3 28 10 33 30 12 56 16 62 35 62 13 0 19 7 19 23 0 16 25 51 75 103 52 54 74 85 71 97 -3 12 3 21 20 27 28 11 58 72 49 99 -3 12 6 26 30 45 28 23 35 35 35 64 0 54 20 100 47 107 l23 5 0 649 0 650 -22 3 c-15 2 -24 11 -26 26 -4 28 -109 132 -134 132 -9 0 -20 9 -23 20 -3 11 -9 20 -13 20 -4 0 -27 18 -52 40 -25 22 -52 40 -61 40 -9 0 -19 9 -22 20 -3 13 -14 20 -30 20 -14 0 -29 5 -32 10 -3 6 -15 10 -27 10 -12 0 -22 8 -25 20 -6 22 -61 50 -99 50 -17 0 -24 6 -24 18 0 24 -40 42 -90 42 -22 0 -40 5 -40 10 0 26 -41 50 -84 50 -26 0 -51 6 -60 15 -8 8 -24 15 -35 15 -12 0 -21 6 -21 15 0 11 -11 15 -43 15 -24 0 -52 7 -63 15 -10 8 -31 15 -45 15 -18 0 -28 7 -32 20 -4 17 -14 20 -55 20 -28 0 -54 5 -57 10 -3 6 -23 10 -44 10 -25 0 -44 7 -56 20 -12 13 -31 20 -54 20 -20 0 -45 7 -55 15 -11 8 -35 15 -55 15 -19 0 -42 6 -50 13 -32 28 -102 47 -170 47 -52 0 -70 4 -75 15 -3 8 -16 15 -29 15 -14 0 -30 7 -37 15 -9 11 -33 15 -92 15 -61 0 -80 3 -84 15 -4 9 -19 15 -39 15 -18 0 -38 7 -45 15 -9 11 -32 15 -79 15 -37 0 -72 5 -78 11 -6 6 -59 13 -117 16 -90 5 -108 9 -117 24 -8 17 -23 19 -109 19 -55 0 -102 4 -105 10 -3 6 -42 10 -85 10 -69 0 -81 3 -90 20 -10 18 -21 20 -109 20 -65 0 -111 5 -134 15 -25 10 -72 15 -151 15 -86 0 -115 3 -119 13 -4 10 -39 16 -124 21 -65 4 -138 12 -163 18 -53 14 -2366 21 -2490 7z"/>
 </g>
<g id="layer102" fill="#e1e1e1" stroke="none">
 <path d="M3260 11989 c-41 -4 -120 -12 -175 -18 -55 -6 -128 -11 -163 -11 -46 0 -64 -4 -68 -15 -5 -12 -32 -15 -153 -15 -100 0 -161 -5 -195 -15 -27 -8 -88 -15 -136 -15 -78 0 -88 -2 -93 -19 -4 -18 -17 -20 -128 -25 -387 -18 -368 -16 -379 -37 -8 -14 -21 -19 -53 -19 -23 0 -64 -7 -91 -15 -27 -8 -77 -15 -111 -15 -43 0 -66 -5 -75 -15 -7 -8 -27 -15 -45 -15 -18 0 -38 -7 -45 -15 -9 -10 -32 -15 -74 -15 -56 0 -65 -3 -91 -30 -26 -27 -35 -30 -94 -30 -64 0 -171 -32 -171 -52 0 -4 -8 -8 -17 -8 -10 0 -27 -7 -37 -15 -11 -8 -32 -15 -47 -15 -16 0 -40 -12 -59 -30 -27 -25 -40 -30 -82 -30 -39 0 -51 -4 -54 -18 -6 -22 -58 -52 -90 -52 -14 0 -27 -7 -30 -15 -4 -8 -12 -15 -19 -15 -7 0 -15 -7 -19 -15 -3 -9 -18 -15 -36 -15 -18 0 -33 -6 -36 -15 -4 -8 -11 -15 -18 -15 -6 0 -24 -16 -39 -35 -15 -19 -35 -35 -43 -35 -19 0 -104 -70 -104 -86 0 -7 -7 -14 -15 -18 -8 -3 -15 -13 -15 -23 -1 -18 -22 -53 -33 -53 -3 0 -17 -11 -31 -24 -19 -17 -26 -34 -26 -60 0 -29 -4 -36 -19 -36 -54 0 -51 48 -51 -726 l0 -714 25 0 c22 0 25 -4 25 -33 0 -40 20 -87 38 -87 7 0 12 -13 12 -32 0 -18 7 -42 15 -52 8 -11 15 -32 15 -47 0 -43 10 -59 36 -59 18 0 24 -6 24 -21 0 -13 25 -46 63 -84 35 -34 72 -80 83 -103 11 -24 26 -42 35 -42 19 0 29 -20 29 -56 0 -15 7 -27 18 -30 9 -3 24 -10 32 -15 8 -5 22 -12 30 -15 8 -3 31 -26 50 -49 19 -24 41 -44 48 -44 7 -1 22 -17 33 -36 12 -19 29 -35 39 -35 9 0 51 -34 93 -75 46 -45 85 -75 97 -75 15 0 20 -6 18 -17 -4 -25 10 -43 32 -43 10 0 42 -16 71 -35 30 -19 63 -35 74 -35 12 0 34 -13 51 -28 16 -16 37 -31 47 -35 9 -4 22 -18 27 -32 8 -21 16 -25 49 -25 22 0 44 -6 51 -15 7 -8 21 -15 31 -15 10 0 20 -9 24 -19 4 -12 26 -25 65 -37 33 -11 60 -24 60 -31 0 -16 14 -24 69 -38 27 -7 46 -17 46 -25 0 -17 41 -40 71 -40 12 0 27 -7 34 -15 7 -8 20 -15 30 -15 10 0 20 -7 24 -15 3 -10 19 -15 45 -15 22 0 42 -4 45 -9 3 -5 22 -12 41 -15 20 -4 39 -14 42 -22 3 -9 20 -14 48 -14 29 0 45 -5 49 -15 3 -8 14 -15 25 -15 10 0 21 -6 24 -14 3 -7 27 -16 53 -20 26 -3 79 -21 118 -40 84 -40 133 -56 168 -56 14 0 28 -7 32 -15 3 -8 12 -15 20 -15 8 0 16 -4 18 -10 2 -5 41 -12 86 -16 56 -5 86 -12 89 -21 3 -7 15 -13 28 -13 12 0 28 -7 35 -15 9 -10 32 -15 74 -15 38 -1 68 -6 80 -15 11 -8 38 -15 61 -15 29 0 44 -5 53 -20 10 -17 23 -20 87 -20 70 0 77 -2 107 -30 19 -19 41 -30 59 -30 16 0 29 -4 29 -9 0 -5 9 -13 20 -16 11 -4 20 -15 20 -27 0 -13 10 -24 30 -31 22 -8 35 -23 46 -54 11 -28 23 -43 34 -43 20 0 30 -19 30 -56 0 -13 9 -29 20 -36 11 -7 20 -23 20 -36 0 -12 7 -25 15 -28 10 -4 15 -20 15 -45 0 -26 5 -42 15 -45 20 -8 23 -244 3 -244 -17 0 -37 -45 -31 -69 4 -15 -1 -20 -24 -23 -23 -2 -29 -8 -31 -33 -2 -17 -16 -41 -33 -57 -16 -15 -32 -41 -35 -57 -4 -17 -15 -33 -25 -36 -11 -4 -19 -12 -19 -20 0 -7 -7 -16 -16 -19 -11 -4 -14 -13 -11 -27 4 -15 0 -23 -12 -26 -18 -5 -51 -66 -51 -95 0 -8 -16 -30 -35 -49 -19 -19 -35 -40 -35 -47 0 -29 -26 -92 -38 -92 -15 0 -16 -3 -32 -87 -8 -41 -18 -63 -26 -63 -10 0 -14 -14 -14 -50 0 -39 -3 -50 -16 -50 -12 0 -15 -7 -12 -24 4 -19 0 -26 -19 -30 -20 -6 -23 -13 -23 -51 0 -24 -4 -47 -10 -50 -6 -3 -10 -23 -10 -43 0 -26 -6 -41 -20 -50 -12 -7 -20 -23 -20 -40 0 -16 -7 -37 -15 -48 -8 -10 -15 -37 -15 -60 0 -42 -14 -64 -40 -64 -8 0 -30 -16 -47 -35 -19 -20 -42 -35 -55 -35 -15 0 -29 -11 -40 -30 -9 -17 -23 -30 -30 -30 -7 0 -22 -13 -32 -28 -11 -16 -32 -37 -48 -48 -19 -13 -28 -27 -28 -46 0 -17 -5 -28 -14 -28 -16 0 -56 -76 -56 -106 0 -10 -14 -30 -30 -43 -25 -19 -30 -30 -30 -66 0 -26 -6 -47 -15 -55 -8 -7 -15 -18 -15 -25 0 -7 -7 -15 -15 -19 -10 -4 -15 -19 -15 -49 0 -24 -5 -48 -11 -54 -6 -6 -14 -41 -16 -77 -4 -46 -10 -66 -19 -66 -10 0 -14 -16 -14 -63 0 -37 -5 -68 -12 -75 -18 -18 -24 -480 -8 -577 6 -38 14 -89 17 -113 4 -33 11 -45 28 -52 12 -5 32 -22 45 -39 18 -27 19 -33 7 -45 -8 -8 -17 -45 -20 -81 -4 -37 -12 -73 -18 -81 -6 -8 -9 -27 -7 -44 3 -22 0 -31 -14 -36 -14 -4 -18 -16 -18 -57 0 -29 -7 -90 -15 -137 -9 -47 -14 -105 -13 -130 2 -36 -1 -46 -15 -48 -16 -3 -17 -30 -17 -347 0 -311 2 -344 16 -347 14 -3 17 -16 15 -88 -1 -47 5 -121 14 -165 8 -44 15 -108 15 -143 0 -46 4 -64 15 -68 9 -4 15 -19 15 -35 0 -16 7 -46 15 -66 8 -19 15 -62 15 -94 0 -32 6 -64 12 -71 29 -32 48 -82 48 -129 0 -41 5 -53 30 -77 23 -23 30 -38 30 -68 0 -33 5 -43 33 -61 28 -19 33 -29 34 -65 1 -24 7 -44 13 -46 5 -2 10 -17 10 -33 0 -21 5 -29 18 -29 17 0 21 -11 49 -112 2 -10 9 -18 15 -18 20 0 37 -34 38 -73 0 -26 5 -40 17 -44 29 -11 53 -42 53 -68 0 -15 6 -25 14 -25 17 0 46 -43 46 -69 0 -14 8 -21 28 -23 23 -3 27 -7 24 -31 -2 -18 3 -29 14 -34 22 -8 54 -40 54 -53 0 -5 4 -10 10 -10 8 0 80 -66 80 -74 0 -2 30 -32 66 -67 92 -88 124 -122 124 -131 0 -5 13 -8 28 -8 32 0 52 -16 52 -42 0 -13 8 -18 30 -18 18 0 33 -6 36 -15 4 -8 15 -15 25 -15 11 0 22 -7 25 -15 4 -8 18 -15 33 -15 15 0 34 -9 44 -20 9 -11 24 -20 32 -20 8 0 15 -4 15 -10 0 -5 12 -10 28 -10 15 0 42 -9 60 -20 18 -11 46 -20 63 -20 17 0 32 -6 35 -15 4 -8 12 -15 20 -15 8 0 14 -4 14 -9 0 -6 32 -13 71 -17 58 -5 73 -10 76 -25 5 -17 17 -19 124 -19 66 0 119 4 119 8 0 5 -48 14 -106 20 -77 9 -112 17 -130 31 -14 11 -49 23 -82 26 -33 4 -72 17 -92 30 -39 26 -100 45 -143 45 -20 0 -30 7 -37 25 -8 20 -18 25 -60 31 -39 5 -54 12 -62 28 -6 14 -26 27 -54 35 -28 8 -52 24 -65 42 -11 16 -27 29 -35 29 -15 0 -50 30 -180 156 -46 45 -84 87 -84 93 0 6 -6 11 -12 11 -16 0 -98 90 -98 107 0 6 -11 20 -24 30 -13 10 -30 32 -39 49 -9 17 -23 36 -32 44 -17 14 -42 64 -47 95 -2 11 -12 21 -24 23 -17 2 -23 12 -28 42 -4 24 -18 51 -36 70 -17 18 -30 41 -30 56 0 14 -11 35 -25 48 -17 16 -27 39 -31 69 -4 25 -15 59 -25 74 -33 50 -37 57 -50 102 -7 24 -21 54 -31 66 -10 13 -23 47 -29 76 -15 76 -39 137 -55 143 -9 4 -14 22 -14 54 0 72 -19 164 -40 193 -13 18 -20 51 -24 115 -15 236 -29 339 -47 360 -18 19 -19 42 -19 316 0 279 1 297 20 320 23 29 38 119 44 261 3 82 7 102 24 120 15 16 24 47 33 112 6 50 18 97 25 106 15 16 20 99 7 99 -5 0 -26 17 -47 37 -39 36 -40 39 -48 127 -17 180 -20 359 -9 445 6 47 12 124 13 170 1 61 6 89 19 105 16 20 49 155 49 200 0 12 13 43 29 68 16 25 32 59 36 76 3 17 16 46 28 64 13 18 31 59 42 90 12 37 26 60 41 67 12 5 24 20 26 33 2 13 13 27 25 33 13 5 27 22 32 37 7 19 17 28 31 28 14 0 24 9 31 30 7 18 18 30 29 30 10 0 44 20 76 45 31 25 61 45 65 45 15 0 28 37 40 111 6 41 20 84 31 99 11 15 24 59 31 102 9 58 17 80 35 94 16 14 24 34 29 74 4 35 15 67 30 86 14 19 26 52 30 83 4 35 12 55 23 61 10 5 25 31 34 56 9 26 26 61 39 78 13 17 27 43 31 59 3 15 11 27 16 27 6 0 10 7 10 15 0 8 11 25 25 37 14 12 25 30 25 40 0 11 13 31 29 46 16 15 32 38 36 52 4 13 21 37 36 51 19 18 29 37 29 56 0 23 6 31 30 40 24 9 30 17 30 42 0 18 6 34 14 37 34 13 46 118 25 229 -6 33 -17 68 -25 79 -8 11 -14 32 -14 47 0 40 -20 88 -41 100 -11 6 -19 21 -19 37 0 33 -8 45 -37 61 -13 6 -23 18 -23 26 0 7 -29 44 -65 81 -51 53 -72 68 -102 73 -29 5 -39 11 -41 29 -4 25 -14 28 -117 37 -38 4 -77 13 -86 21 -17 15 -87 31 -190 43 -37 5 -89 20 -117 34 -29 15 -88 33 -132 41 -45 9 -93 25 -109 37 -16 11 -59 26 -101 33 -41 7 -76 18 -78 25 -6 19 -50 34 -117 40 -49 5 -62 10 -70 28 -9 21 -42 33 -96 33 -15 0 -36 8 -46 19 -27 28 -54 39 -113 47 -32 4 -61 15 -73 27 -10 10 -41 27 -68 37 -27 9 -59 25 -72 36 -33 28 -64 44 -87 44 -11 0 -29 9 -39 19 -26 26 -75 51 -99 51 -11 0 -26 9 -33 21 -8 11 -39 29 -69 39 -40 14 -56 24 -58 39 -2 15 -11 21 -29 21 -13 0 -44 16 -67 35 -24 19 -51 35 -60 35 -10 0 -30 13 -46 29 -16 15 -49 38 -74 49 -24 12 -47 31 -51 42 -3 11 -14 20 -24 20 -10 0 -49 29 -87 65 -38 36 -81 68 -96 71 -17 4 -29 15 -32 30 -4 13 -11 24 -16 24 -6 0 -43 34 -83 75 -41 41 -81 75 -89 75 -10 0 -18 13 -22 35 -5 26 -13 36 -31 41 -14 3 -28 17 -33 33 -5 15 -37 59 -71 98 -33 39 -61 78 -61 86 0 9 -11 24 -25 35 -15 12 -35 49 -51 93 -15 41 -35 85 -45 98 -11 13 -19 36 -19 52 0 15 -12 41 -26 58 -23 28 -26 42 -31 134 -3 56 -5 327 -5 602 1 424 3 544 11 631 1 7 12 15 25 18 18 4 25 15 30 45 4 28 19 54 51 88 52 55 66 72 81 99 6 10 21 24 33 30 12 6 29 18 39 27 42 40 91 77 100 77 6 0 16 9 22 20 6 11 19 20 29 20 11 0 38 16 61 35 25 20 53 35 68 35 33 0 45 8 61 38 10 18 20 22 59 22 41 0 53 5 77 30 18 19 39 30 55 30 37 0 91 19 115 40 18 16 154 50 198 50 9 0 32 11 52 24 22 15 57 27 93 31 63 7 146 31 177 51 11 7 54 15 95 19 141 12 214 26 228 46 11 17 27 19 123 19 144 0 371 27 382 46 6 10 30 14 90 14 45 0 169 7 275 14 148 11 197 18 205 30 10 12 91 17 502 30 270 9 589 16 710 16 215 0 245 4 245 32 0 10 -960 8 -1060 -3z"/>
 <path d="M4450 11984 c0 -10 7 -14 22 -12 32 5 35 28 4 28 -17 0 -26 -5 -26 -16z"/>
 <path d="M4870 11992 c0 -25 43 -30 315 -35 503 -10 818 -27 832 -45 14 -17 242 -41 404 -42 84 0 98 -3 110 -19 17 -23 140 -41 285 -41 76 0 94 -3 108 -19 18 -20 39 -24 241 -44 66 -7 129 -17 140 -23 31 -18 92 -35 180 -49 110 -19 138 -26 155 -40 14 -12 85 -26 192 -40 31 -4 51 -12 57 -24 10 -17 105 -41 166 -41 15 0 34 -9 43 -20 20 -25 76 -39 149 -40 32 0 55 -5 60 -13 17 -29 59 -47 105 -47 35 0 54 -6 69 -21 22 -22 72 -42 134 -53 22 -4 51 -18 65 -30 14 -12 45 -29 70 -36 25 -7 53 -22 62 -32 9 -10 39 -26 65 -35 26 -9 58 -27 70 -39 12 -14 39 -26 63 -30 31 -5 44 -13 56 -35 9 -19 22 -29 37 -29 12 0 34 -12 49 -27 14 -16 45 -44 69 -63 58 -47 104 -96 142 -150 l32 -45 0 -591 c0 -553 -1 -593 -18 -612 -18 -19 -57 -120 -57 -145 0 -8 -13 -31 -29 -51 -16 -20 -32 -55 -36 -76 -5 -28 -15 -46 -35 -60 -16 -11 -30 -30 -32 -43 -2 -12 -13 -26 -25 -32 -13 -5 -23 -17 -23 -27 0 -9 -18 -38 -40 -63 -22 -25 -40 -54 -40 -63 0 -9 -14 -25 -30 -34 -17 -9 -30 -23 -30 -31 0 -8 -15 -26 -34 -41 -19 -14 -37 -35 -41 -45 -3 -10 -17 -22 -30 -25 -14 -4 -32 -20 -40 -36 -9 -17 -23 -30 -31 -30 -9 0 -21 -13 -27 -30 -8 -21 -18 -30 -34 -30 -14 0 -39 -16 -62 -40 -21 -22 -46 -40 -55 -40 -9 0 -21 -11 -26 -26 -6 -14 -23 -29 -40 -36 -17 -5 -35 -19 -41 -29 -5 -10 -24 -25 -42 -33 -18 -7 -47 -27 -64 -45 -17 -17 -40 -31 -50 -31 -24 0 -43 -19 -43 -42 0 -12 -8 -18 -24 -18 -39 0 -84 -20 -101 -46 -10 -16 -25 -24 -45 -24 -18 0 -42 -11 -62 -28 -18 -16 -51 -34 -74 -40 -22 -6 -51 -23 -64 -37 -13 -14 -34 -25 -46 -25 -13 0 -26 -5 -29 -10 -11 -18 -78 -56 -121 -68 -23 -7 -54 -22 -70 -34 -15 -13 -53 -27 -83 -33 -43 -8 -57 -14 -60 -30 -5 -28 -19 -35 -76 -35 -48 0 -115 -28 -115 -48 0 -5 -26 -12 -58 -15 -52 -4 -76 -13 -132 -46 -8 -5 -42 -15 -75 -21 -33 -7 -72 -21 -86 -30 -14 -10 -66 -26 -115 -35 -49 -9 -93 -20 -99 -25 -20 -16 -100 -39 -195 -55 -52 -9 -110 -25 -128 -36 -23 -13 -62 -21 -125 -26 -84 -6 -94 -9 -119 -35 -21 -23 -35 -28 -71 -28 -39 0 -51 -5 -93 -46 -27 -25 -52 -49 -56 -52 -47 -44 -98 -128 -98 -161 0 -11 -4 -23 -10 -26 -5 -3 -10 -16 -10 -29 0 -12 -7 -31 -15 -42 -17 -22 -20 -105 -5 -120 6 -6 19 -53 30 -105 23 -115 35 -149 60 -166 11 -8 20 -24 20 -37 0 -12 13 -35 30 -51 16 -15 32 -41 35 -57 4 -16 17 -35 30 -44 13 -9 26 -30 30 -50 4 -23 13 -38 28 -43 16 -6 27 -24 36 -59 10 -35 21 -53 38 -61 13 -6 23 -19 23 -31 0 -26 26 -78 50 -99 9 -9 22 -35 29 -58 6 -23 23 -55 36 -71 14 -17 25 -38 25 -48 0 -44 21 -94 39 -94 16 0 19 -10 23 -66 4 -57 8 -70 31 -90 15 -13 27 -33 27 -46 0 -49 29 -159 49 -184 12 -15 21 -37 21 -50 0 -14 10 -30 25 -40 14 -9 25 -22 25 -29 0 -7 15 -24 33 -38 18 -13 55 -55 82 -92 28 -37 62 -79 76 -94 15 -14 29 -38 33 -53 4 -17 14 -28 28 -30 16 -2 24 -12 29 -38 4 -19 17 -42 28 -52 12 -9 28 -35 36 -58 8 -23 23 -49 33 -58 11 -9 32 -53 47 -97 15 -44 33 -87 40 -95 7 -8 18 -58 25 -110 13 -101 24 -140 43 -152 18 -11 17 -556 -1 -567 -8 -4 -22 -48 -33 -97 -11 -49 -26 -95 -34 -104 -18 -20 -45 -88 -45 -112 0 -11 14 -50 30 -88 17 -38 30 -86 30 -107 0 -21 7 -123 16 -228 13 -140 21 -195 33 -208 14 -16 16 -65 16 -373 0 -292 -3 -356 -14 -364 -15 -9 -33 -143 -45 -330 -4 -58 -13 -125 -21 -150 -34 -109 -44 -149 -54 -218 -6 -41 -23 -95 -36 -120 -14 -26 -28 -63 -31 -82 -4 -19 -12 -42 -19 -50 -25 -30 -43 -76 -50 -128 -6 -44 -11 -55 -31 -62 -19 -8 -24 -17 -24 -43 0 -25 -9 -43 -35 -70 -19 -20 -35 -45 -35 -57 0 -13 -9 -24 -25 -30 -14 -5 -25 -17 -25 -26 0 -8 -33 -50 -72 -92 -113 -118 -151 -152 -173 -152 -11 0 -38 -16 -59 -35 -26 -23 -50 -35 -68 -35 -19 0 -38 -10 -56 -29 -24 -26 -36 -29 -112 -36 -229 -18 -293 -20 -390 -13 -117 10 -170 4 -170 -17 0 -8 -11 -22 -25 -31 -14 -9 -39 -38 -56 -64 -35 -54 -148 -150 -176 -150 -11 0 -23 -12 -29 -29 -10 -24 -18 -29 -61 -35 -39 -5 -52 -11 -61 -30 -8 -19 -21 -24 -71 -30 -46 -5 -64 -12 -78 -30 -15 -20 -36 -27 -112 -40 -54 -9 -101 -22 -112 -32 -13 -12 -55 -20 -145 -30 -69 -7 -129 -15 -132 -18 -3 -3 62 -6 145 -6 138 0 151 2 155 18 4 15 19 20 69 25 35 4 68 12 73 17 6 6 22 10 38 10 15 0 31 6 35 13 10 14 97 57 119 57 15 0 59 25 82 47 7 7 28 13 46 13 25 0 42 10 76 45 24 25 49 45 56 45 7 0 14 7 18 15 3 8 11 15 18 15 18 0 57 43 81 88 20 39 73 92 91 92 6 0 117 1 246 3 198 2 241 5 272 20 21 9 58 17 83 17 30 0 45 4 45 13 0 7 24 21 53 31 28 10 65 31 81 47 19 18 40 29 58 29 16 0 31 7 34 15 4 8 13 15 20 15 8 0 17 6 20 14 3 8 44 54 90 103 47 48 97 100 111 115 15 16 23 35 21 50 -3 24 16 50 45 61 10 4 17 17 17 32 0 37 17 65 40 65 17 0 20 7 20 44 0 30 5 46 15 50 10 3 15 19 15 43 0 29 8 45 30 67 23 22 30 38 30 67 0 23 5 39 15 43 8 3 15 16 15 30 0 13 5 26 11 28 6 2 14 37 17 78 2 41 11 84 18 95 8 11 14 39 14 62 0 32 4 43 15 43 12 0 15 17 15 89 0 48 5 103 11 121 7 18 12 87 13 154 1 105 3 122 19 128 16 7 17 35 17 398 0 365 -1 390 -17 390 -16 0 -18 15 -18 160 -1 111 -5 164 -13 172 -8 8 -12 45 -12 100 0 72 -3 88 -15 88 -10 0 -15 10 -15 31 0 22 -5 32 -19 36 -19 5 -19 6 0 43 11 21 27 41 35 44 8 3 14 16 14 29 0 14 7 41 16 62 8 21 14 56 12 79 -2 32 1 42 15 44 16 3 17 28 17 318 0 306 -1 314 -20 314 -16 0 -19 5 -14 29 3 16 -1 61 -10 99 -9 39 -16 87 -16 106 0 25 -4 36 -15 36 -13 0 -20 14 -12 23 1 2 -5 14 -14 28 -9 13 -20 43 -24 67 -4 28 -16 49 -33 63 -15 11 -27 29 -28 39 -1 23 -35 69 -51 70 -7 0 -16 19 -19 42 -4 24 -17 52 -31 66 -12 12 -23 25 -23 27 0 2 -26 30 -58 62 -32 32 -65 74 -74 93 -9 20 -35 51 -57 69 -22 19 -43 43 -47 53 -3 10 -12 18 -20 18 -9 0 -14 11 -14 30 0 17 -5 30 -12 30 -17 0 -38 46 -38 81 0 15 -7 40 -15 55 -8 16 -15 46 -15 67 0 30 -4 40 -19 44 -25 6 -30 21 -38 107 -5 66 -8 73 -37 91 -26 17 -31 27 -34 68 -2 33 -7 47 -18 47 -7 0 -14 7 -14 15 0 9 -7 27 -16 40 -9 13 -13 29 -9 35 4 7 -8 25 -29 42 -27 22 -37 38 -36 57 4 48 0 56 -30 69 -18 8 -30 21 -30 33 0 10 -4 19 -10 19 -5 0 -10 11 -10 25 0 18 -7 28 -25 35 -18 7 -28 22 -37 55 -8 29 -18 45 -28 45 -10 0 -20 16 -28 45 -7 25 -17 45 -23 45 -18 0 -38 32 -39 62 0 35 -9 58 -24 58 -23 0 -46 61 -46 120 0 32 -4 62 -10 65 -5 3 -10 18 -10 32 0 16 -7 27 -20 30 -12 3 -20 14 -20 27 0 12 9 27 20 34 11 7 20 23 20 36 0 14 5 28 10 31 6 3 10 24 10 46 0 28 4 39 15 39 9 0 15 9 15 24 0 17 24 49 81 105 79 79 83 81 129 81 33 0 50 5 53 15 10 26 76 45 153 45 59 0 75 3 86 18 9 13 31 21 72 25 32 3 64 11 69 16 6 6 37 11 68 11 41 0 58 4 63 15 3 8 16 15 30 15 13 0 26 6 29 13 3 9 32 16 83 21 43 3 83 11 88 16 6 6 18 10 27 10 9 0 19 7 23 15 3 9 18 15 35 15 36 0 141 38 141 51 0 5 14 9 31 9 17 0 42 9 56 20 14 11 41 20 60 20 21 0 36 6 39 15 4 8 14 15 24 15 10 0 23 7 30 15 9 10 32 15 74 15 58 0 64 2 84 30 19 24 30 30 62 30 21 0 43 6 47 13 10 15 68 43 108 52 17 4 44 17 62 31 17 13 37 24 43 24 6 0 24 14 41 31 17 17 44 33 63 36 19 3 48 18 66 34 17 16 37 29 44 29 8 0 19 7 26 15 7 8 25 15 41 15 18 0 29 5 29 14 0 8 11 17 25 20 14 4 25 11 25 16 0 6 18 10 40 10 34 0 41 4 46 25 3 14 11 25 18 25 6 0 34 18 63 39 28 22 64 41 79 43 21 2 30 10 34 28 4 16 14 26 28 28 12 2 29 17 39 33 10 16 25 29 35 29 10 0 18 3 18 8 0 4 15 24 33 45 23 26 41 37 60 37 20 0 27 5 27 18 0 20 29 52 48 52 6 0 17 12 24 28 10 20 23 28 48 32 29 4 35 9 35 30 0 20 6 26 28 28 20 3 28 10 33 30 12 56 16 62 35 62 13 0 19 7 19 23 0 16 25 51 75 103 52 54 74 85 71 97 -3 12 3 21 20 27 28 11 58 72 49 99 -3 12 6 26 30 45 28 23 35 35 35 64 0 54 20 100 47 107 l23 5 0 649 0 650 -22 3 c-15 2 -24 11 -26 26 -4 28 -109 132 -134 132 -9 0 -20 9 -23 20 -3 11 -9 20 -13 20 -4 0 -27 18 -52 40 -25 22 -52 40 -61 40 -9 0 -19 9 -22 20 -3 13 -14 20 -30 20 -14 0 -29 5 -32 10 -3 6 -15 10 -27 10 -12 0 -22 8 -25 20 -6 22 -61 50 -99 50 -17 0 -24 6 -24 18 0 24 -40 42 -90 42 -22 0 -40 5 -40 10 0 26 -41 50 -84 50 -26 0 -51 6 -60 15 -8 8 -24 15 -35 15 -12 0 -21 6 -21 15 0 11 -11 15 -43 15 -24 0 -52 7 -63 15 -10 8 -31 15 -45 15 -18 0 -28 7 -32 20 -4 17 -14 20 -55 20 -28 0 -54 5 -57 10 -3 6 -23 10 -44 10 -25 0 -44 7 -56 20 -12 13 -31 20 -54 20 -20 0 -45 7 -55 15 -11 8 -35 15 -55 15 -19 0 -42 6 -50 13 -32 28 -102 47 -170 47 -52 0 -70 4 -75 15 -3 8 -16 15 -29 15 -14 0 -30 7 -37 15 -9 11 -33 15 -92 15 -61 0 -80 3 -84 15 -4 9 -19 15 -39 15 -18 0 -38 7 -45 15 -9 11 -32 15 -79 15 -37 0 -72 5 -78 11 -6 6 -59 13 -117 16 -90 5 -108 9 -117 24 -8 17 -23 19 -109 19 -55 0 -102 4 -105 10 -3 6 -42 10 -85 10 -69 0 -81 3 -90 20 -10 18 -21 20 -109 20 -65 0 -111 5 -134 15 -25 10 -72 15 -151 15 -86 0 -115 3 -119 13 -4 10 -39 16 -124 21 -65 4 -138 12 -163 18 -56 14 -880 23 -880 10z"/>
 </g>

</svg>