<!DOCTYPE svg PUBLIC "-//W3C//DTD SVG 20010904//EN" "http://www.w3.org/TR/2001/REC-SVG-20010904/DTD/svg10.dtd">
<svg version="1.0" xmlns="http://www.w3.org/2000/svg" width="771px" height="1200px" viewBox="0 0 7710 12000" preserveAspectRatio="xMidYMid meet">
<g id="layer101" fill="#cdcdcd" stroke="none">
 <path d="M5165 11989 c-27 -5 -78 -11 -113 -14 -34 -2 -68 -7 -74 -11 -6 -4 -37 -8 -69 -10 -31 -1 -66 -7 -77 -13 -12 -6 -30 -11 -42 -11 -11 0 -31 -6 -43 -14 -12 -7 -49 -17 -82 -20 -57 -6 -138 -29 -160 -45 -5 -4 -30 -13 -55 -20 -25 -7 -53 -17 -62 -22 -10 -5 -26 -9 -35 -9 -10 0 -27 -7 -37 -15 -11 -8 -28 -15 -38 -15 -11 0 -43 -13 -73 -30 -30 -16 -62 -30 -72 -30 -10 0 -29 -9 -43 -20 -14 -11 -31 -20 -37 -20 -7 0 -13 -4 -13 -10 0 -5 -11 -10 -24 -10 -13 0 -29 -7 -36 -15 -7 -8 -31 -24 -54 -35 -42 -20 -60 -30 -108 -62 -15 -10 -32 -18 -38 -18 -6 0 -21 -9 -33 -21 -12 -11 -37 -27 -54 -36 -18 -8 -33 -19 -33 -24 0 -5 -8 -9 -19 -9 -16 0 -31 -10 -97 -71 -12 -10 -26 -19 -30 -19 -5 0 -22 -12 -39 -26 -16 -14 -42 -32 -57 -40 -16 -8 -28 -19 -28 -24 0 -6 -6 -10 -13 -10 -7 0 -27 -16 -44 -35 -17 -19 -36 -35 -42 -35 -6 0 -16 -9 -23 -20 -7 -11 -16 -20 -21 -20 -29 0 -526 -491 -627 -620 -31 -39 -90 -109 -110 -130 -8 -8 -37 -44 -65 -80 -27 -36 -55 -72 -62 -80 -124 -158 -377 -521 -485 -697 -10 -15 -23 -37 -30 -48 -7 -11 -24 -38 -38 -60 -14 -22 -31 -49 -37 -60 -7 -11 -31 -51 -53 -90 -23 -38 -45 -77 -50 -85 -55 -92 -107 -185 -157 -280 -110 -210 -146 -275 -155 -278 -4 -2 -8 -10 -8 -17 0 -13 -58 -140 -80 -175 -5 -8 -19 -35 -31 -60 -12 -25 -44 -92 -71 -150 -68 -141 -109 -231 -118 -255 -4 -11 -23 -54 -43 -95 -19 -41 -42 -91 -50 -110 -63 -146 -87 -206 -87 -221 0 -9 -7 -19 -15 -23 -8 -3 -15 -14 -15 -25 0 -11 -5 -23 -10 -26 -6 -3 -10 -13 -10 -22 0 -9 -9 -36 -20 -60 -43 -93 -58 -130 -75 -183 -10 -30 -21 -63 -26 -73 -5 -9 -19 -43 -30 -75 -11 -31 -24 -65 -30 -74 -5 -10 -19 -48 -30 -85 -11 -38 -29 -86 -40 -109 -10 -23 -19 -50 -19 -62 0 -11 -5 -22 -11 -24 -5 -2 -13 -22 -16 -46 -3 -23 -12 -47 -19 -53 -8 -6 -14 -19 -14 -29 0 -10 -7 -34 -15 -53 -8 -20 -15 -47 -15 -60 0 -14 -7 -30 -15 -37 -8 -7 -15 -22 -15 -33 0 -21 -62 -226 -86 -282 -7 -16 -15 -51 -19 -78 -4 -26 -11 -50 -16 -53 -5 -3 -9 -18 -9 -34 0 -16 -5 -32 -10 -35 -5 -3 -10 -16 -10 -28 0 -12 -7 -42 -16 -67 -9 -25 -20 -65 -24 -90 -5 -25 -16 -74 -25 -110 -9 -36 -17 -75 -17 -87 0 -13 -4 -23 -9 -23 -5 0 -9 -17 -9 -38 0 -21 -4 -42 -10 -48 -5 -5 -14 -43 -20 -84 -6 -41 -15 -88 -19 -105 -13 -44 -42 -191 -51 -260 -5 -33 -16 -116 -24 -185 -9 -69 -21 -138 -26 -154 -6 -16 -10 -59 -10 -95 0 -36 -5 -100 -11 -141 -5 -41 -13 -118 -17 -170 -8 -111 -7 -700 2 -780 3 -30 8 -80 11 -110 10 -123 25 -247 34 -285 5 -22 18 -94 27 -160 10 -66 21 -128 26 -137 5 -10 13 -44 19 -75 5 -32 16 -78 24 -103 7 -25 21 -74 31 -110 9 -36 25 -84 35 -107 11 -24 19 -49 19 -56 0 -7 9 -37 21 -67 11 -30 25 -68 31 -85 5 -16 21 -54 34 -83 13 -29 24 -58 24 -65 0 -6 8 -26 19 -43 10 -17 22 -41 26 -55 4 -13 16 -36 26 -50 10 -14 21 -38 25 -53 3 -15 13 -30 20 -33 8 -3 14 -16 14 -28 0 -13 5 -27 10 -30 6 -4 17 -21 25 -38 8 -18 20 -41 27 -52 50 -78 65 -103 76 -127 6 -16 16 -28 22 -28 5 0 10 -6 10 -13 0 -7 13 -28 30 -47 16 -19 29 -40 30 -46 0 -6 13 -24 30 -40 16 -16 30 -33 30 -38 0 -10 35 -54 105 -132 28 -31 57 -66 65 -78 19 -27 119 -126 128 -126 4 0 16 -14 28 -30 11 -16 47 -53 80 -81 32 -28 86 -74 118 -102 32 -29 75 -63 95 -77 20 -13 45 -32 55 -42 11 -10 25 -18 30 -18 6 0 29 -16 51 -35 22 -19 46 -35 53 -35 6 0 20 -8 30 -17 10 -10 49 -34 87 -53 39 -19 74 -41 78 -47 4 -7 16 -13 25 -13 9 0 28 -9 42 -20 14 -11 31 -20 38 -20 14 0 160 -76 327 -170 22 -12 47 -28 56 -36 8 -8 20 -14 26 -14 10 0 52 -19 93 -42 8 -4 22 -11 30 -14 8 -3 24 -10 35 -14 11 -5 40 -15 65 -21 25 -7 51 -17 58 -23 7 -5 62 -12 122 -14 89 -4 112 -2 131 12 13 9 36 16 51 16 15 0 30 5 33 10 3 6 14 10 24 10 20 0 71 22 71 32 0 3 19 17 43 31 72 43 204 189 249 277 7 14 15 27 18 30 3 3 16 28 30 55 13 28 37 72 52 98 16 26 28 57 28 67 0 11 5 20 10 20 6 0 10 7 10 16 0 9 18 58 39 108 22 50 47 118 57 151 9 33 22 74 29 90 11 26 29 83 65 210 5 17 16 53 25 82 8 28 15 61 15 72 0 10 7 32 15 48 15 31 75 238 82 291 3 18 9 35 14 38 5 3 9 16 9 29 0 30 19 113 31 137 5 10 9 28 9 40 0 12 4 35 9 52 16 51 49 254 61 366 21 197 20 265 -9 505 -8 64 -41 178 -53 183 -5 2 -8 16 -8 30 0 15 -9 42 -20 60 -11 18 -20 38 -20 46 0 7 -9 21 -20 31 -11 10 -20 23 -20 30 0 45 -275 320 -340 340 -14 4 -33 16 -43 27 -11 10 -49 34 -85 52 -37 17 -79 40 -94 50 -16 10 -28 15 -28 12 0 -4 -15 4 -33 18 -19 15 -41 26 -50 26 -10 0 -17 4 -17 10 0 5 -18 15 -40 21 -22 7 -40 15 -40 19 0 5 -140 73 -185 89 -25 9 -111 49 -147 67 -14 8 -32 14 -40 14 -8 0 -32 13 -54 30 -21 16 -44 30 -50 30 -15 0 -184 164 -184 177 0 6 -7 13 -15 17 -8 3 -15 14 -15 24 0 11 -7 25 -15 32 -8 7 -15 18 -15 25 0 7 -7 18 -15 25 -8 7 -15 21 -15 31 0 11 -4 27 -10 37 -9 16 -30 101 -52 207 -6 30 -8 140 -5 275 6 243 12 326 25 344 5 6 12 34 16 61 12 89 32 200 39 215 3 8 22 76 42 150 51 193 66 241 81 277 8 17 14 39 14 50 0 10 6 27 13 38 8 11 24 54 37 95 13 41 26 80 30 85 4 6 11 26 15 45 4 19 14 44 21 55 8 11 14 26 14 33 0 8 7 30 16 50 45 104 56 128 65 144 5 10 9 23 9 28 0 6 9 30 20 52 11 23 20 48 20 55 0 7 5 13 10 13 6 0 10 9 10 19 0 11 8 36 19 58 28 58 82 175 90 198 5 11 20 45 34 75 112 239 149 317 157 330 5 8 24 44 43 80 19 36 57 107 85 158 29 50 52 94 52 97 0 2 12 23 28 47 15 24 32 52 39 63 55 91 98 161 104 165 3 3 14 19 23 37 9 18 24 40 34 50 9 10 34 43 55 73 21 30 54 75 73 100 122 159 330 358 428 407 128 65 166 83 176 83 6 0 21 6 33 14 42 26 298 27 326 2 10 -9 32 -16 49 -16 18 0 32 -4 32 -10 0 -5 17 -14 38 -20 22 -5 54 -21 73 -35 19 -14 48 -32 66 -40 17 -8 44 -26 59 -40 15 -14 31 -25 37 -25 6 0 26 -12 46 -27 44 -35 90 -63 161 -100 30 -15 57 -31 60 -34 3 -3 28 -17 56 -30 28 -14 65 -35 82 -47 16 -12 34 -22 40 -22 8 0 29 -11 112 -60 8 -4 33 -16 55 -25 22 -9 52 -23 67 -31 14 -7 37 -14 51 -14 14 0 27 -5 29 -11 2 -6 19 -12 38 -15 19 -2 55 -7 80 -10 25 -4 51 -11 58 -16 8 -7 17 -7 27 2 12 10 18 10 30 0 8 -7 23 -9 32 -6 10 4 46 9 82 11 35 3 69 9 75 15 5 5 25 10 42 10 18 0 36 5 39 10 3 6 16 10 28 10 12 0 31 7 41 15 11 8 28 15 38 15 10 0 31 8 46 18 15 10 36 23 47 30 65 40 85 55 85 63 0 5 7 9 16 9 21 0 306 289 369 374 28 37 71 96 97 130 27 33 51 68 55 76 6 14 121 189 164 252 11 15 19 29 19 32 0 2 32 54 70 115 39 62 70 116 70 121 0 5 6 15 13 22 7 7 24 33 38 58 13 25 26 47 29 50 5 5 27 40 70 115 9 17 29 50 43 75 15 25 43 79 63 120 19 41 40 82 45 90 5 8 12 22 15 30 3 8 13 33 23 55 41 89 50 113 71 180 12 38 25 74 29 80 5 5 11 34 15 64 4 30 10 60 14 65 12 19 15 58 16 201 0 142 -15 222 -51 266 -7 8 -13 23 -13 33 0 45 -137 215 -220 272 -25 17 -54 41 -64 53 -11 11 -24 21 -31 21 -7 0 -31 14 -53 30 -23 17 -46 30 -51 30 -6 0 -27 11 -47 25 -20 14 -43 25 -50 25 -8 0 -14 3 -14 8 0 6 -90 55 -140 77 -8 3 -37 19 -65 36 -27 16 -64 35 -80 43 -17 8 -39 24 -49 35 -11 12 -27 21 -36 21 -9 0 -26 9 -38 20 -12 11 -25 20 -29 20 -12 0 -96 43 -111 58 -7 6 -20 12 -29 12 -15 0 -56 17 -146 61 -22 11 -47 19 -57 19 -11 0 -22 5 -25 10 -3 6 -19 10 -34 10 -16 0 -34 7 -41 15 -7 8 -25 15 -41 15 -15 0 -30 4 -33 9 -3 5 -20 11 -38 14 -55 9 -92 18 -113 27 -11 5 -38 11 -60 13 -22 3 -74 12 -115 20 -41 9 -103 18 -136 20 -34 2 -68 8 -75 13 -19 12 -393 14 -454 3z"/>
 </g>

</svg>