<?xml version="1.0" standalone="yes"?>
<svg xmlns="http://www.w3.org/2000/svg" width="967" height="1243">
<path style="fill:#ffffff; stroke:none;" d="M0 0L0 419L2 419C2 406.263 5.46265 394.546 6.87114 382C8.08711 371.169 8.00693 359.665 10.4599 349C12.8708 338.518 17.2622 328.304 20.4907 318C32.7892 278.75 49.7437 240.009 73.7461 206.089C94.8773 176.227 120.77 150.1 147.996 125.845C174.319 102.395 202.085 79.1069 233.576 62.6343C236.274 61.2227 239.285 60.9022 242 59.5409C248.87 56.0963 255.157 51.3148 262 47.9691C265.72 46.1501 269.94 45.3096 273.715 43.5486C293.44 34.3467 312.98 25.8296 334 19.7878C341.644 17.5908 349.369 17.1464 357 15.4059C363.397 13.9469 369.662 11.8743 376 10.4144C378.956 9.73364 382.015 10.2106 385 9.79089C393.91 8.53796 403.04 6.69751 411.985 5.26697C415.836 4.65112 419.157 2.51636 423.004 2.10803C430.844 1.27576 439.116 2 447 2L447 0L0 0z"/>
<path style="fill:#f1f1f1; stroke:none;" d="M417 3C421.154 4.72668 425.613 3.12207 430 3.01465C438.989 2.79443 448.008 3.00049 457 3C461.353 2.99976 466.262 3.87561 469 0C462.8 0 456.247 -0.613159 450.09 0.128906C446.953 0.506958 444.213 1.86292 440.996 1.98145C433.02 2.27539 424.821 1.13782 417 3z"/>
<path style="fill:#e3e3e3; stroke:none;" d="M402 7C407.371 9.2489 414.398 6.91101 420 6.13037C430.588 4.65491 441.31 4 452 4C476.656 4 501.323 2.39929 526 4.08948C536.936 4.8385 548.134 5.95166 559 7.28625C565.066 8.03125 570.869 9.8728 577 10C572.77 6.79126 565.25 6.40881 560 5.71838C546.658 3.96399 533.455 3 520 3L520 0C504.488 0 488.503 -1.12744 473.039 0.0548096C469.126 0.354004 465.967 2.71472 461.999 2.95605C450.37 3.66321 438.626 2.29248 427 3.08948C418.573 3.66724 410.351 6.75842 402 7z"/>
<path style="fill:#ffffff; stroke:none;" d="M520 0L520 3C530.507 3 540.563 4.19568 551 4.91052C556.955 5.31836 563.082 4.37695 569 5.20911C573.141 5.79138 576.909 7.84009 581 8.62427C584.614 9.31702 588.434 8.48474 591.985 9.50928C594.545 10.2477 596.565 12.1115 599.17 12.7261C603.595 13.7705 608.502 15.2474 613 15.8148C617.617 16.3972 621.4 15.5488 624 20C641.409 20.0134 659.361 30.0316 675.089 36.7469C682.26 39.8083 689.841 41.9635 697 45.0525C719.093 54.5858 740.062 66.1936 759.714 79.9877C762.601 82.0138 766.015 82.9598 768.961 84.9012C777.826 90.7449 787.086 97.5387 795.389 104.024C816.521 120.529 835.309 139.634 853.701 159.045C875.098 181.626 895.301 206.103 911.293 233C922.459 251.779 930.649 271.614 938.52 291.83C940.398 296.654 943.464 301.047 945.187 306C949.041 317.079 951.264 328.748 954.431 340C960.11 360.18 965 380.952 965 402L967 402L967 0L520 0z"/>
<path style="fill:#cccccc; stroke:none;" d="M271 49C264.66 49.5221 260.5 52.4414 255 55.3009C245.104 60.4463 235.245 65.6453 226 71.875C218.732 76.7723 210.206 79.8187 203 84.7747C183.27 98.344 165.565 113.558 147.957 129.576C140.41 136.44 131.797 142.371 124.424 149.274C117.609 155.655 110.389 162.886 104.539 170.17C102.156 173.137 100.797 176.753 98.402 179.714C77.5185 205.542 58.1848 232.046 43.5031 262.004C34.0118 281.371 24.2908 303.004 19.4144 324C16.4405 336.804 14.7929 350.074 12.6752 363C12.052 366.803 10.3008 370.267 9.4591 374C8.08437 380.096 8.57086 386.792 7.81559 393C7.27795 397.419 5.41836 401.528 5.09028 406C4.14635 418.866 5 432.099 5 445C5 460.858 5.83047 476.229 6.91049 492C7.30164 497.712 6.88279 503.279 7.88503 508.961C8.58478 512.928 10.9947 516.089 11.8758 520.001C13.0036 525.008 12.4288 529.964 13.1435 534.961C13.5137 537.549 15.114 539.583 15.7052 542.089C17.3268 548.964 18.0764 556.155 19.9275 563C21.4313 568.56 24.2074 573.621 26.1304 579C32.3581 596.42 39.3898 613.165 47.1026 630C60.023 658.202 80.5872 682.956 98.5718 708C103.202 714.447 108.206 720.849 112.607 727.424C114.628 730.443 115.572 733.977 117.67 737C123.261 745.057 130.055 752.154 135.583 760.286C139.436 765.952 142.083 772.465 146.054 778C152.811 787.417 160.881 795.898 167.833 805.129C171.177 809.569 173.706 814.55 177.036 819C182.587 826.417 190.66 836.003 193 845C201.92 847.781 205.752 861.026 210.854 868C226.222 889.006 241.27 910.416 255.694 932C258.994 936.937 263.445 941.044 266.756 946C293.089 985.411 321.474 1023.37 349.066 1062C370.831 1092.46 390.686 1124.7 413.869 1154.04C430.059 1174.53 443.348 1196.66 458.209 1218C461.956 1223.38 465.883 1228.55 469.544 1234C470.791 1235.85 472.532 1238.73 474.982 1239.08C478.457 1239.58 480.054 1233.56 481.375 1231.29C486.414 1222.61 493.174 1215.38 498.6 1207.02C509.594 1190.09 523.022 1174.92 535.381 1159.18C538.8 1154.83 540.946 1149.61 544.167 1145.09C552.349 1133.61 560.927 1122.18 569.529 1111.02C582.346 1094.39 594.511 1077.25 607.129 1060.42C611.194 1055 616.332 1050.51 620.36 1045C647.993 1007.22 674.649 968.702 702.686 931.17C718.419 910.109 734.163 889.013 749.973 868.043C754.036 862.654 759.422 858.346 763.471 852.83C766.812 848.279 768.712 842.705 772.036 838C780.282 826.324 789.443 815.752 798.625 804.964C805.537 796.844 810.483 787 816.559 778.247C826.876 763.384 838.509 749.437 849.164 734.83C855.505 726.137 862.367 712.174 872 707C874.544 696.867 883.246 691.628 888.717 683.335C899.575 666.875 910.379 650.179 920.298 633C922.904 628.486 922.667 622.828 924.954 618.17C927.86 612.251 932.187 606.887 934.929 600.961C936.387 597.81 936.465 594.286 937.455 591C940.676 580.317 943.572 569.65 946.572 559C948.475 552.242 952.322 545.961 954.215 539C955.023 536.031 954.781 532.99 955.379 530C956.128 526.254 957.853 522.783 958.535 519C962.832 495.173 963 470.192 963 446C963 428.646 963.51 411.273 961.83 394C961.358 389.148 959.68 384.734 958.884 379.985C958.17 375.723 958.54 371.168 957.529 367C956.777 363.896 955.019 361.146 954.38 358C952.708 349.774 952.582 341.174 950.367 333C948.603 326.492 945.268 320.421 943.498 314C939.707 300.248 936.008 286.096 929.505 273.286C927.022 268.396 923.619 264.049 921.205 259C918.38 253.089 916.169 246.753 913.049 241C910.582 236.453 906.987 232.523 904.552 227.961C902.795 224.667 901.859 221.189 899.817 218C890.778 203.885 879.957 191.675 869.224 178.996C867.171 176.571 865.886 173.62 863.726 171.286C859.943 167.199 855.168 164.096 851.286 160.075C845.913 154.509 842.235 147.651 836.826 142.17C831.949 137.228 826.222 133.391 821 128.886C812.238 121.325 803.812 113.274 794.871 106.012C790.873 102.764 786.118 100.797 782 97.7493C772.932 91.0389 764.51 83.8136 755 77.7184C727.334 59.9861 696.679 47.2781 666.001 35.6088C658.055 32.5864 651.287 27.1697 643 24.6844C640.057 23.802 636.976 24.2119 634 23.5409C627.932 22.1729 622.035 19.5527 616 18.2986C607.802 16.5948 599.281 15.8514 591 14.1921C587.271 13.4451 583.754 11.7496 580 11.21C576.686 10.7335 573.313 11.218 570 10.6752C566.108 10.0375 562.656 7.97253 558.83 7.26001C553.037 6.18091 546.863 7.38855 541 6.8302C535.899 6.34436 530.98 4.4126 525.961 4.05408C517.678 3.46252 509.296 4.32397 501 3.96069C480.811 3.07654 460.229 2.70398 440 4.08948C428.619 4.86902 417.362 7.13159 406 7.91052C389.163 9.0647 373.438 13.4407 357 17.3241C346.373 19.8346 335.313 21.8342 325.09 25.7192C317.578 28.5736 310.324 32.3855 302.715 35.2014C295.735 37.7847 288.159 40.189 281 42.2954C276.347 43.6646 271.951 43.5052 271 49z"/>
<path style="fill:#d8d8d8; stroke:none;" d="M530 5C535.363 7.27173 542.222 6.99939 548 7C542.534 4.64209 535.875 5 530 5z"/>
<path style="fill:#f6f6f6; stroke:none;" d="M558 5C562.518 6.91443 568.146 7.30676 573 8.24377C580.988 9.78577 588.808 11.6481 597 12C592.703 8.29346 588.243 9.5282 583 8.79089C578.859 8.20874 575.091 6.15991 571 5.37573C566.798 4.57031 562.262 5 558 5z"/>
<path style="fill:#ececec; stroke:none;" d="M372 11C383.133 14.4246 397.46 7.23804 409 7C401.585 3.88953 392.392 8.21033 385 9.62427C380.673 10.4519 376.334 9.96814 372 11z"/>
<path style="fill:#d9d9d9; stroke:none;" d="M561 8C567.203 11.3707 573.406 10.071 580 11.3789C591.197 13.5999 602.485 17.967 614 18C607.878 14.5658 600.766 14.5322 594.015 13.2314C583.13 11.1343 572.223 8.23279 561 8z"/>
<path style="fill:#e2e2e2; stroke:none;" d="M343 19C346.543 20.0868 350.38 18.709 354 18.0802C363.062 16.5065 371.798 12.8025 381 12C377.024 10.3782 373.077 11.9795 369 12.7393C360.193 14.3804 351.631 16.5688 343 19z"/>
<path style="fill:#e7e7e7; stroke:none;" d="M589 11C592.526 15.0977 602.794 14.8927 608 15C603.293 11.7847 594.693 11.7352 589 11z"/>
<path style="fill:#f3f3f3; stroke:none;" d="M608 15C612.685 18.3379 618.455 17.9994 624 18C619.718 15.0747 613.104 15.645 608 15z"/>
<path style="fill:#eeeeee; stroke:none;" d="M307 30C311.456 31.8125 315.673 29.2302 320 27.858C331.174 24.3143 341.167 18.6013 353 17C347.987 14.9009 343.906 17.4617 339 18.625C327.944 21.2468 317.659 26.027 307 30z"/>
<path style="fill:#e7e7e7; stroke:none;" d="M618 18C624.032 24.1655 636.896 23.4955 645 25C642.866 22.5577 640.078 23.2708 637.089 22.3163C630.987 20.3669 624.5 18.192 618 18z"/>
<path style="fill:#e0e0e0; stroke:none;" d="M327 24C331.984 25.9252 337.95 22.0563 343 21C337.429 18.7288 332.432 22.9646 327 24z"/>
<path style="fill:#f6f6f6; stroke:none;" d="M275 44C290.474 37.1266 306.587 31.8508 322 25C317.75 23.8174 312.017 26.3628 308 28.0007C300.285 31.1464 292.554 33.8257 285 37.3179C281.186 39.0808 277.154 40.2974 275 44z"/>
<path style="fill:#ebebeb; stroke:none;" d="M645 25C647.48 27.0326 649.83 27.5632 653 28C650.514 26.2267 647.987 25.626 645 25z"/>
<path style="fill:#dbdbdb; stroke:none;" d="M278 42C282.342 43.3138 285.864 40.3817 289.996 39.2546C300.63 36.3539 311.176 30.9296 322 29C317.699 27.2634 314.237 29.8712 310 30.8202C298.616 33.3699 288.891 37.998 278 42z"/>
<path style="fill:#e9e9e9; stroke:none;" d="M653 28C657.386 32.6118 665.726 34.8524 672 35C666.544 31.0514 659.52 29.3392 653 28z"/>
<path style="fill:#e7e7e7; stroke:none;" d="M300 33C302.37 33.5886 303.707 32.9546 306 32C303.538 31.3031 302.335 31.8895 300 33z"/>
<path style="fill:#d8d8d8; stroke:none;" d="M659 32C665.686 37.7255 675.955 39.1105 684 42.3766C690.015 44.8187 695.374 48.5604 702 49C698.896 46.7023 695.471 45.8119 692.089 44.0741C681.694 38.7312 670.615 34.063 659 32z"/>
<path style="fill:#ececec; stroke:none;" d="M689 42C692.236 45.3462 697.476 46.978 702 48C698.336 44.6161 693.683 43.4747 689 42z"/>
<path style="fill:#f2f2f2; stroke:none;" d="M259 50C264.106 49.2454 268.345 47.103 273 45C268.778 43.8746 261.966 46.9572 259 50z"/>
<path style="fill:#d5d5d5; stroke:none;" d="M210 80C213.645 81.376 220.345 75.5801 224 73.7778C229.298 71.1655 233.815 66.8877 239.083 64.1111C246.024 60.4534 253.396 57.2495 260 53C263.496 50.7502 270.114 50.1556 271 46C260.321 49.561 250.699 55.7094 241.015 61.2507C230.298 67.3832 220.118 72.8079 210 80z"/>
<path style="fill:#eaeaea; stroke:none;" d="M702 48C708.358 53.4506 719.702 59.7507 728 61C721.258 55.0493 710.849 49.681 702 48z"/>
<path style="fill:#d6d6d6; stroke:none;" d="M702 49C704.611 53.1533 710.348 54.9486 715 56C711.421 52.4949 706.755 50.4661 702 49z"/>
<path style="fill:#e6e6e6; stroke:none;" d="M249 55C253.294 55.8848 257.191 52.77 261 51C256.888 49.9077 252.678 53.2041 249 55z"/>
<path style="fill:#dfdfdf; stroke:none;" d="M231 65C235.943 66.3564 243.033 60.7567 247 58C241.989 56.9697 235.486 62.7396 231 65z"/>
<path style="fill:#dcdcdc; stroke:none;" d="M722 60C725.352 62.9349 729.818 64.5126 734 66L732 61L722 60z"/>
<path style="fill:#f0f0f0; stroke:none;" d="M226 68C230.476 67.3201 233.318 64.4409 237 62C232.889 60.9133 228.445 64.9777 226 68z"/>
<path style="fill:#e8e8e8; stroke:none;" d="M732 63C737.834 69.8574 746.616 72.9857 754 77.7184C762.439 83.1272 770.571 89.0227 779 94.4561C782.807 96.9099 785.863 100.105 790 102C784.148 91.885 770.768 86.6195 761.424 80.5887C751.911 74.4481 743.361 65.5981 732 63z"/>
<path style="fill:#f6f6f6; stroke:none;" d="M192 90C200.129 87.1602 206.916 80.9995 214 76.2168C218.142 73.4202 222.707 71.8416 226 68C218.2 69.9629 211.659 75.475 204.996 79.75C200.49 82.6411 195.045 85.5258 192 90z"/>
<path style="fill:#e0e0e0; stroke:none;" d="M188 95C199.617 90.1317 209.343 80.6848 220 74C216.12 73.3688 213.065 76.1675 210 78.3634C203.286 83.1727 191.946 87.634 188 95z"/>
<path style="fill:#efefef; stroke:none;" d="M158 117C170.273 111.195 180.291 100.272 191 92C187.575 91.4679 184.758 94.2583 182 96.1697C176.305 100.116 171.655 104.811 166.545 109.381C163.509 112.096 160.127 113.393 158 117z"/>
<path style="fill:#d9d9d9; stroke:none;" d="M776 93C779.103 96.5498 782.591 99.2948 787 101C784.071 97.1731 780.692 94.2782 776 93z"/>
<path style="fill:#dfdfdf; stroke:none;" d="M182 100C184.718 98.675 186.43 97.5829 188 95C185.034 96.174 183.535 97.2043 182 100z"/>
<path style="fill:#dddddd; stroke:none;" d="M170 109C174.241 106.994 178.002 104.628 181 101C176.675 102.639 172.434 104.988 170 109z"/>
<path style="fill:#f5f5f5; stroke:none;" d="M790 102C793.133 105.797 797.313 108.327 801.089 111.459C805.963 115.501 810.034 119.597 816 122C813.829 118.26 810.347 116.511 807.089 113.784C801.859 109.405 797.166 102.544 790 102z"/>
<path style="fill:#dcdcdc; stroke:none;" d="M798 110C799.904 111.885 801.534 112.953 804 114C802.094 111.677 800.892 110.806 798 110z"/>
<path style="fill:#dfdfdf; stroke:none;" d="M154 123C158.424 120.341 164.22 116.337 167 112C161.548 114.068 156.682 117.76 154 123z"/>
<path style="fill:#f1f1f1; stroke:none;" d="M154 121C156.118 119.782 156.845 119.133 158 117C155.751 118.154 155.154 118.751 154 121z"/>
<path style="fill:#dddddd; stroke:none;" d="M809 119C813.25 123.789 819.207 129.299 825 132C821.076 126.43 815.753 120.756 809 119z"/>
<path style="fill:#f2f2f2; stroke:none;" d="M89 188C94.9505 183.216 99.5154 176.79 104.5 171.05C111.728 162.726 119.625 154.328 127.611 146.745C135.816 138.955 149.038 131.23 154 121C146.709 124.395 140.883 131.342 135.09 136.816C123.76 147.517 112.08 157.865 102.255 170.036C97.7055 175.671 90.8963 180.782 89 188z"/>
<path style="fill:#f0f0f0; stroke:none;" d="M816 122C820.625 128.565 827.667 136.58 835 140C830.583 133.729 823.364 124.698 816 122z"/>
<path style="fill:#d6d6d6; stroke:none;" d="M151 124C147.195 129.17 141.034 132.317 138 138C143.791 134.653 149.839 129.968 153 124L151 124z"/>
<path style="fill:#d7d7d7; stroke:none;" d="M128 147C132.125 144.826 135.195 141.702 138 138C133.653 139.759 130.302 142.921 128 147z"/>
<path style="fill:#f2f2f2; stroke:none;" d="M835 140C838.649 145.501 844.765 153.586 851 156C848.151 150.017 840.94 142.828 835 140z"/>
<path style="fill:#d5d5d5; stroke:none;" d="M842 148C845.677 157.122 854.022 164.545 862 170C858.231 161.408 849.38 153.529 842 148z"/>
<path style="fill:#efefef; stroke:none;" d="M858 162C859.63 167.982 864.822 174.592 870 178C867.626 171.863 862.775 166.463 858 162z"/>
<path style="fill:#dfdfdf; stroke:none;" d="M100 175C94.2359 182.593 86.4387 188.915 83 198C86.2155 195.336 88.0096 191.852 90.7461 188.745C94.7548 184.195 99.0605 180.38 102 175L100 175z"/>
<path style="fill:#d9d9d9; stroke:none;" d="M867 176C868.841 179.946 871.458 182.497 875 185C873.159 181.054 870.542 178.503 867 176z"/>
<path style="fill:#f2f2f2; stroke:none;" d="M870 178C871.549 180.135 872.865 181.451 875 183C873.676 180.313 872.687 179.324 870 178z"/>
<path style="fill:#eeeeee; stroke:none;" d="M875 183C878.153 190.595 884.313 196.339 888.996 203C894.571 210.93 899.23 221.039 907 227C905.006 221.843 901.237 217.548 898.12 213C893.81 206.712 889.822 200.349 885.164 194.286C882.126 190.33 879.405 185.41 875 183z"/>
<path style="fill:#f6f6f6; stroke:none;" d="M86 189C80.7647 196.89 71.7158 204.492 70 214C76.4619 206.597 83.7904 197.911 88 189L86 189z"/>
<path style="fill:#e1e1e1; stroke:none;" d="M884 196C884.806 198.892 885.677 200.094 888 202C886.953 199.534 885.884 197.904 884 196z"/>
<path style="fill:#dadada; stroke:none;" d="M79 200C73.7561 210.275 65.0144 219.052 61 230C66.4118 225.656 69.1913 218.814 72.8148 213C75.5577 208.599 78.9035 204.774 81 200L79 200z"/>
<path style="fill:#efefef; stroke:none;" d="M68 214C63.4035 223.279 55.564 230.703 53 241C60.3433 235.018 66.3541 222.699 70 214L68 214z"/>
<path style="fill:#e2e2e2; stroke:none;" d="M903 224C904.2 230.19 909.007 237.233 914 241C911.559 234.812 908.242 228.205 903 224z"/>
<path style="fill:#f0f0f0; stroke:none;" d="M907 227C909.57 236.556 916.433 245.418 921.088 254.089C927.167 265.415 932.569 277.942 937 290C938.584 284.767 934.281 277.776 932.116 273C927.605 263.053 922.491 253.618 917.375 244C914.201 238.033 912.159 231.63 907 227z"/>
<path style="fill:#e3e3e3; stroke:none;" d="M56 237C48.8351 247.789 42.1227 259.146 36.7245 271.015C35.1441 274.49 34.6464 278.264 33.1659 281.714C30.0255 289.034 25.0909 296.913 25 305C34.8267 291.286 37.154 272.523 46.1659 258.17C49.49 252.875 57.4033 243.457 56 237z"/>
<path style="fill:#d6d6d6; stroke:none;" d="M914 243C916.169 251.715 921.914 266.388 929 272C926.823 262.482 920.875 250.011 914 243z"/>
<path style="fill:#d7d7d7; stroke:none;" d="M466 244L466 246C479.373 246 492.691 245.902 506 247.17C516.198 248.141 525.712 251.188 536 252C528.403 246.801 518.852 246.517 510 245.911C495.227 244.899 480.857 244 466 244z"/>
<path style="fill:#e0e0e0; stroke:none;" d="M427 250C433.478 252.712 442.214 248.818 449 248.17C464.52 246.687 480.398 247 496 247C490.293 244.605 482.154 246 476 246C463.428 246 450.475 245.632 438 247.185C434.222 247.656 430.748 249.355 427 250z"/>
<path style="fill:#f1f1f1; stroke:none;" d="M466 247C469.959 248.661 474.74 248 479 248C486.979 248 495.029 247.687 503 248.039C509.498 248.326 514.838 251.053 521 252.53C525.124 253.518 529.769 253.465 534 254C530.322 250.245 525.846 251.464 521.089 250.026C503.682 244.763 484.073 247 466 247z"/>
<path style="fill:#ffffff; stroke:none;" d="M376 647C388.098 648.212 398.955 654.87 410 659.286C413.997 660.884 417.886 660.408 421.961 661.299C424.165 661.781 425.98 663.199 428.17 663.701C431.353 664.431 434.765 663.839 438 664.3C446.903 665.569 454.981 666.644 464 667.039C489.797 668.169 514.984 667.161 540 660.509C573.51 651.6 605.17 635.798 632.054 613.883C654.853 595.299 675.084 571.935 687.305 545C691.379 536.019 695.896 527.266 698.91 517.83C700.697 512.237 701.103 506.602 702.471 501C703.228 497.897 704.981 495.146 705.62 492C707.435 483.071 706.642 473.09 707.039 464C707.6 451.167 708.382 436.831 706.711 424C705.139 411.937 700.916 401.21 696.901 389.985C692.779 378.462 688.351 366.511 682.008 356.015C674.981 344.385 665.547 333.74 656.174 324.086C640.508 307.951 623.351 292.182 604 280.444C598.061 276.841 591.258 274.405 585 271.389C575.604 266.86 566.95 261.902 557 258.683C545.893 255.089 534.344 254.751 523 252.737C517.181 251.704 512.018 248.773 506 248.171C495.839 247.154 485.21 248 475 248C466.527 248 457.502 247.111 449.09 248.129C444.602 248.672 440.513 251.16 436 251.791C418.007 254.306 399.664 257.475 383.09 265.593C375.193 269.461 368.136 274.328 360.573 278.75C348.915 285.566 338.724 291.431 328.83 300.792C321.111 308.095 312.122 314.095 304.499 321.598C294.687 331.256 283.849 344.382 276.904 356.289C270.884 366.612 267.737 378.138 263.035 389C249.524 420.213 247.794 456.682 253.259 490C255.165 501.621 259.676 512.535 262.004 524C263.532 531.524 267.79 536.249 270.792 543.015C278.996 561.506 290.201 577.056 303.715 592.015C310.259 599.259 316.919 607.714 325 613.312C328.141 615.488 331.653 616.944 334.675 619.334C340.932 624.284 346.973 630.614 354.039 634.397C360.676 637.95 372.063 640.23 376 647z"/>
<path style="fill:#efefef; stroke:none;" d="M421 253C423.838 253.839 426.107 252.79 429 252.325C434.539 251.435 440.429 250.555 446 250C441.643 248.189 437.465 250.063 433 250.7C428.633 251.322 425.021 250.908 421 253z"/>
<path style="fill:#e5e5e5; stroke:none;" d="M388 262C392.519 263.385 396.786 260.764 401 259.205C408.109 256.575 415.706 255.07 423 253C419.465 251.572 416.589 253.018 413 253.781C404.367 255.616 396.441 259.448 388 262z"/>
<path style="fill:#e8e8e8; stroke:none;" d="M533 252C538.113 256.044 546.697 256.706 553 258C548.729 253.998 538.849 252.125 533 252z"/>
<path style="fill:#dedede; stroke:none;" d="M542 254C544.876 255.219 548.042 255.26 551 256.44C558.916 259.596 567.416 264.383 576 265C567.549 257.643 552.981 254.007 542 254z"/>
<path style="fill:#dcdcdc; stroke:none;" d="M319 306C328.751 301.333 336.744 291.494 346 285.547C355.028 279.746 364.492 273.961 374 268.978C379.242 266.23 385.124 265.295 390 262C384.11 260.281 375.017 265.959 370 268.92C357.789 276.125 345.617 282.99 334 291.178C328.62 294.97 321.341 299.663 319 306z"/>
<path style="fill:#e7e7e7; stroke:none;" d="M368 272C372.65 273.074 379.061 268.496 383 266C378.137 264.859 371.996 269.389 368 272z"/>
<path style="fill:#f1f1f1; stroke:none;" d="M573 265C578.804 269.855 588.491 274.929 596 276C590.118 270.071 581.168 266.384 573 265z"/>
<path style="fill:#e3e3e3; stroke:none;" d="M592 272C596.221 277.438 603.515 281.818 610 284C605.521 278.16 598.918 274.326 592 272z"/>
<path style="fill:#f3f3f3; stroke:none;" d="M305 321C309.594 318.509 313.047 314.456 317.015 311.079C326.224 303.242 335.089 294.84 345 287.914C352.217 282.87 362.919 280.545 368 273C350.901 279.087 335.289 291.939 321.87 303.831C315.957 309.071 308.665 313.835 305 321z"/>
<path style="fill:#e0e0e0; stroke:none;" d="M930 275C931.165 279.391 931.84 283.714 936 286C934.465 282.082 933.034 277.923 930 275z"/>
<path style="fill:#e7e7e7; stroke:none;" d="M610 284C614.382 288.684 619.873 292.972 626 295C621.778 290.135 616.366 285.496 610 284z"/>
<path style="fill:#dcdcdc; stroke:none;" d="M619 288C623.556 294.19 630.952 300.859 638 304C633.838 298.14 625.97 290.174 619 288z"/>
<path style="fill:#e0e0e0; stroke:none;" d="M936 289C937.12 294.891 939.62 301.467 942 307C943.301 301.306 939.875 293.147 936 289z"/>
<path style="fill:#f1f1f1; stroke:none;" d="M940 294C941.727 306.822 947.767 317.837 951.352 330C952.409 333.587 951.663 337.387 952.613 341C959.055 365.509 964 389.425 964 415L967 415C967 388.983 960.326 363.205 954.174 338C952.002 329.103 949.079 320.826 946.633 312C944.919 305.817 943.837 299.354 940 294z"/>
<path style="fill:#f6f6f6; stroke:none;" d="M624 295C629.454 301.283 636.697 306.019 643 311.428C646.694 314.598 649.709 318.71 654 321C649.432 313.097 642.008 307.648 635 302C631.48 299.163 628.394 296.221 624 295z"/>
<path style="fill:#e0e0e0; stroke:none;" d="M23 307C21.634 312.277 19.9102 317.645 19 323C22.2884 319.205 24.4999 311.891 23 307z"/>
<path style="fill:#dbdbdb; stroke:none;" d="M302 322C307.652 319.232 314.335 312.081 318 307C311.113 308.869 304.898 315.674 302 322z"/>
<path style="fill:#d8d8d8; stroke:none;" d="M943 307C943.005 313.535 945.21 317.9 947 324C948.874 319.415 945.094 311.348 943 307z"/>
<path style="fill:#dedede; stroke:none;" d="M644 309C650.272 317.912 659.152 328.636 668 335C664.967 328.378 659.145 323.444 654.424 318C651.347 314.451 648.568 310.468 644 309z"/>
<path style="fill:#f1f1f1; stroke:none;" d="M654 321C655.841 324.946 658.458 327.497 662 330C660.159 326.054 657.542 323.503 654 321z"/>
<path style="fill:#eaeaea; stroke:none;" d="M302 322C301.11 323.745 300.547 325.125 300 327C301.752 325.41 302.794 324.046 304 322L302 322z"/>
<path style="fill:#d7d7d7; stroke:none;" d="M18 324C14.6547 335.213 13.6749 347.541 11.74 359C9.25142 373.738 5.04197 387.791 5 403C9.45586 394.8 7.75557 384.906 9.26003 376C11.1262 364.952 14.8809 354.202 16.0787 343C16.7611 336.619 20.6635 330.35 18 324z"/>
<path style="fill:#dbdbdb; stroke:none;" d="M284 344C290.23 339.168 297.095 330.843 301 324C294.11 327.338 286.015 336.602 284 344z"/>
<path style="fill:#e5e5e5; stroke:none;" d="M948 324C948.224 328.314 949.83 331.899 951 336C952.86 331.523 951.307 327.313 948 324z"/>
<path style="fill:#f0f0f0; stroke:none;" d="M298 327C294.712 331.261 291.091 334.978 289 340C293.35 336.61 297.205 331.76 300 327L298 327z"/>
<path style="fill:#eaeaea; stroke:none;" d="M15 330L15 337C16.2216 334.717 16.6521 332.572 17 330L15 330M666 334C667.882 338.446 670.977 343.262 675 346C673.331 341.052 670.122 337.155 666 334z"/>
<path style="fill:#d6d6d6; stroke:none;" d="M951 336C951.046 341.109 953.046 345.089 953.787 350C954.671 355.855 954.419 360.448 957 366C958.329 362.49 956.656 359.529 955.843 356C954.264 349.143 954.188 342.473 951 336z"/>
<path style="fill:#e9e9e9; stroke:none;" d="M14 338C9.80358 350.989 7.00152 365.203 7 379C10.642 370.401 10.5083 360.008 12.5285 351C13.5511 346.441 15.917 342.613 14 338M287 340C284.724 343.659 282.094 346.79 281 351C284.286 347.778 286.949 344.118 289 340L287 340z"/>
<path style="fill:#e2e2e2; stroke:none;" d="M955 347C955.013 351.869 955.433 356.371 957 361C957.952 356.973 956.638 350.796 955 347z"/>
<path style="fill:#e0e0e0; stroke:none;" d="M679 351C680.185 354.057 681.482 355.904 684 358C682.815 354.944 681.518 353.096 679 351z"/>
<path style="fill:#e8e8e8; stroke:none;" d="M274 361C267.512 369.037 264.284 378.511 261.2 388C257.876 398.226 253.45 408.385 251.46 419C248.72 433.614 249 449.169 249 464C251.307 458.501 249.379 451.849 250.325 446C253.095 428.878 253.967 411.354 260.494 395C263.512 387.437 266.191 379.402 269.63 372C271.276 368.458 274.812 364.951 274 361z"/>
<path style="fill:#eaeaea; stroke:none;" d="M684 361C684.996 364.696 687.122 367.673 689 371C690.543 366.539 687.772 363.182 684 361z"/>
<path style="fill:#dfdfdf; stroke:none;" d="M958 361C958 375.38 961.998 388.776 962 403C965.694 394.198 961.754 382.873 960.258 374C959.517 369.6 959.857 365.136 958 361z"/>
<path style="fill:#d8d8d8; stroke:none;" d="M690 369C690.799 374.781 694.503 378.598 696 384C697.865 379.06 693.566 372.353 690 369z"/>
<path style="fill:#eaeaea; stroke:none;" d="M692 377L698 395C699.875 389.594 696.235 380.494 692 377z"/>
<path style="fill:#dadada; stroke:none;" d="M697 384C697.445 392.695 702.013 400.613 704 409C706.761 402.405 701.758 388.882 697 384z"/>
<path style="fill:#f1f1f1; stroke:none;" d="M5 386C4.74023 398.586 0.93778 410.664 0.0540123 423.039C-0.797565 434.964 -0.797563 448.036 0.0540123 459.961C0.514723 466.412 2 472.341 2 479C5.01638 471.812 2.19927 462.535 2.01466 455C1.64033 439.72 3.0557 425.082 4.08951 410C4.58339 402.795 7.84867 392.791 5 386z"/>
<path style="fill:#dadada; stroke:none;" d="M261 386C259.499 388.113 259.178 389.403 259 392C260.777 389.95 261.64 388.66 261 386z"/>
<path style="fill:#e5e5e5; stroke:none;" d="M963 403L964 471L967 471L967 415L964 415C964 411.017 964.552 406.697 963 403z"/>
<path style="fill:#d7d7d7; stroke:none;" d="M4 406L4 478C6.29217 472.537 5 464.887 5 459L5 423C5 417.65 6.08511 410.969 4 406z"/>
<path style="fill:#e3e3e3; stroke:none;" d="M703 406C703.246 417.548 707.522 429.545 708.871 441.039C710.261 452.88 709 465.096 709 477C710.926 472.411 709.708 466.914 710.286 462C711.663 450.284 709.756 437.669 708.13 426C707.169 419.099 706.813 412.031 703 406z"/>
<path style="fill:#d5d5d5; stroke:none;" d="M705 409C707.667 424.75 711.17 440.904 710.741 457C710.523 465.168 709.029 472.986 708.129 481C707.499 486.609 708.724 492.43 707.737 498C706.606 504.382 703.354 511.319 700.876 517.286C697.259 525.992 694.256 535.106 689.911 543.576C683.648 555.78 676.161 566.864 668.327 578.039C664.108 584.057 658.592 588.98 656 596C665.631 588.702 672.359 578.053 678.76 568C684.229 559.411 689.692 551.065 694.087 541.83C695.909 538.002 696.471 533.844 698.117 530C701.917 521.124 706.502 511.402 708.521 501.961C709.428 497.717 708.794 493.297 709.089 489C709.659 480.734 710.385 472.25 711.17 464C712.465 450.387 711.234 438.421 709.3 425C708.468 419.222 709.045 413.668 705 409z"/>
<path style="fill:#dbdbdb; stroke:none;" d="M963 417C963 441.039 963.011 465.02 961.961 489C961.517 499.142 959 508.805 959 519C962.566 510.733 962.649 499.893 963.039 491C963.712 475.663 964 460.397 964 445C964 436.729 966.206 424.639 963 417z"/>
<path style="fill:#e9e9e9; stroke:none;" d="M3 420C1.23293 427.422 2 435.409 2 443C2 457.132 1.83059 471.937 3.16975 486C3.7781 492.388 5.70865 498.624 6 505C9.96241 495.557 5.24873 483.499 4.12886 473.961C2.68227 461.64 4 448.408 4 436C4 430.92 4.98058 424.72 3 420z"/>
<path style="fill:#e0e0e0; stroke:none;" d="M249 434L248 478L251 478C251 468.431 248.89 459.551 249.004 450C249.067 444.727 251.096 438.996 249 434z"/>
<path style="fill:#ececec; stroke:none;" d="M707 437C707 456.49 708.167 476.606 705.816 496C704.99 502.809 701.683 509.142 701 516L703 516C703.525 509.585 707.138 504.231 707.87 498C710.23 477.916 709 457.148 709 437L707 437z"/>
<path style="fill:#ffffff; stroke:none;" d="M0 464L0 1243L473 1243C470.665 1233.26 460.694 1226.24 455.342 1218C452.888 1214.21 451.874 1209.79 449.502 1206.05C445.435 1199.66 438.934 1194.05 434.027 1188.3C429.707 1183.23 426.113 1176.52 422.205 1171C419.416 1167.06 418.286 1162.08 415.417 1158.29C408.883 1149.63 402.497 1140.73 395.897 1132.09C392.344 1127.44 387.597 1123.8 386 1118C378.897 1113.8 373.878 1102.89 369.626 1096C363.464 1086.02 355.502 1077.57 349.019 1067.83C346.968 1064.75 346.418 1061.17 344.571 1058.05C341.594 1053.03 336.415 1048.96 333.049 1044C329.544 1038.83 326.954 1033.06 323.306 1028C318.079 1020.75 311.781 1014.47 306.772 1007C304.635 1003.81 303.387 1000.19 301.134 997.084C295.373 989.133 288.456 982.097 282.819 974C275.027 962.807 266.829 951.493 259.456 940C255.665 934.091 254.572 927.807 247 926C245.72 917.881 238.369 911.691 233.609 905.53C230.413 901.394 228.084 896.254 224.975 891.911C216.161 879.595 206.801 867.675 198.479 855C195.294 850.148 193.187 844.801 189.715 840.054C182.993 830.865 175.121 822.396 168.714 812.831C164.196 806.086 160.539 798.668 155.87 792.004C153.757 788.987 150.893 786.701 148.63 783.83C142.666 776.261 137.874 767.596 132.6 759.665C128.68 753.769 123.445 748.897 119.514 742.999C108.909 727.088 98.6446 710.663 87.7323 695C81.0077 685.348 72.3436 676.922 66.0316 667C63.2825 662.678 61.8094 657.494 59.1528 653.005C55.3272 646.54 50.7512 640.701 47.1705 634.025C34.1738 609.791 25.1815 583.346 17.7022 557C12.0847 537.212 6.23581 517.373 3.30015 497C1.77555 486.42 2 474.701 2 464L0 464z"/>
<path style="fill:#f3f3f3; stroke:none;" d="M251 467C251 486.773 253.74 505.545 261 524C262.82 518.083 259.178 512.517 257.518 507C255.671 500.862 253.492 493.372 253.054 487C252.624 480.74 253.435 472.802 251 467z"/>
<path style="fill:#f1f1f1; stroke:none;" d="M964 471L964 484L967 484L967 471L964 471z"/>
<path style="fill:#ffffff; stroke:none;" d="M964 484C964 507.121 958.789 527.724 953.525 550C949.625 566.505 943.768 582.047 937.995 598C936.402 602.4 935.971 607.514 934.082 611.714C927.429 626.5 918.67 641.23 910.053 654.914C898.221 673.705 882.599 689.573 870.548 708.004C864.313 717.539 858.873 727.758 852.12 736.985C846.811 744.241 840.409 750.755 835.036 758.039C829.513 765.525 824.846 773.638 819.105 780.961C814.491 786.845 809.215 792.232 804.648 798.129C800.106 803.995 796.508 810.567 792.025 816.424C787.409 822.457 781.743 827.83 777.404 834.039C769.81 844.909 761.682 855.327 754.054 866.17C741.063 884.636 729.219 903.967 715.43 921.83C707.986 931.473 699.422 940.109 692.273 949.999C689.71 953.546 688.038 957.517 685.289 961C682.252 964.849 678.482 968.008 675.595 972.001C663.114 989.26 651.238 1007.1 638.08 1023.95C634.997 1027.89 631.164 1031.1 628.167 1035.17C618.984 1047.62 610.801 1060.72 601.407 1073C571.147 1112.55 540.936 1152.49 512.135 1192.96C504.838 1203.21 496.659 1212.79 489.125 1222.74C484.224 1229.21 479.579 1234.69 478 1243L967 1243L967 484L964 484z"/>
<path style="fill:#e9e9e9; stroke:none;" d="M963 486C963 496.309 962.32 506.824 959.556 516.83C958.506 520.628 956.575 524.162 955.609 528C952.493 540.37 950.884 553.421 947.559 565.83C945.575 573.232 942.281 580.439 941 588C945.805 582.074 947.03 574.145 949.103 567C952.661 554.736 956.263 542.443 959.391 530C960.461 525.747 960.191 521.293 961.286 517C963.479 508.398 966.56 494.485 963 486z"/>
<path style="fill:#f3f3f3; stroke:none;" d="M3 488C3 497.943 5.99891 507.097 6 517C9.10321 509.605 6.03074 495.156 3 488z"/>
<path style="fill:#f5f5f5; stroke:none;" d="M705 493C700.279 506.115 698.061 519.844 692.931 533C689.36 542.155 682.406 550.438 680 560C683.771 556.767 685.536 552.341 687.916 548.039C694.365 536.383 698.239 524.625 701.85 512C703.448 506.415 707.29 498.617 705 493z"/>
<path style="fill:#e9e9e9; stroke:none;" d="M7 506C7 514.317 8.32545 521.883 10 530C12.3766 524.283 9.42343 511.618 7 506z"/>
<path style="fill:#d7d7d7; stroke:none;" d="M9 513C9.13077 519.302 10.525 525.876 12 532C14.3187 526.472 12.6769 517.623 9 513z"/>
<path style="fill:#e4e4e4; stroke:none;" d="M11 530C11.0294 540.644 15.855 549.74 18 560C19.6926 555.848 17.8006 552.137 16.76 548C15.2273 541.906 14.6612 535.319 11 530z"/>
<path style="fill:#e7e7e7; stroke:none;" d="M264 533C264.829 536.085 265.473 538.986 268 541C267.446 537.506 266.605 535.404 264 533z"/>
<path style="fill:#f3f3f3; stroke:none;" d="M268 538C268.229 545.719 273.194 554.073 279 559C277.53 554.991 274.972 551.796 273.096 548C271.339 544.445 270.696 541.023 268 538z"/>
<path style="fill:#d5d5d5; stroke:none;" d="M949 553C946.512 557.062 946.583 560.498 945.611 565C944.621 569.586 943.043 573.198 943 578L945 578C945.64 569.965 950.922 561.034 949 553z"/>
<path style="fill:#e3e3e3; stroke:none;" d="M276 557C278.148 566.9 286.897 578.172 295 584C292.757 579.104 288.772 575.486 285.835 571C282.643 566.124 280.475 560.891 276 557z"/>
<path style="fill:#e4e4e4; stroke:none;" d="M19 561C19.2389 565.606 21.2047 569.522 22 574C23.6581 569.707 21.1578 564.82 19 561z"/>
<path style="fill:#f1f1f1; stroke:none;" d="M678 561C674.33 569.61 664.894 575.607 663 585C669.427 578.987 676.934 569.247 680 561L678 561z"/>
<path style="fill:#f5f5f5; stroke:none;" d="M284 569C286.86 573.971 290.369 578.591 295 582C292.75 576.951 288.921 571.635 284 569z"/>
<path style="fill:#dedede; stroke:none;" d="M23 574L26 585C27.7301 580.757 26.2433 576.997 23 574z"/>
<path style="fill:#d7d7d7; stroke:none;" d="M942 578C939.465 583.171 937.171 589.215 937 595C940.74 591.163 944.026 583.243 942 578z"/>
<path style="fill:#e5e5e5; stroke:none;" d="M295 584C296.174 586.966 297.204 588.465 300 590C298.545 587.514 297.218 585.827 295 584z"/>
<path style="fill:#e3e3e3; stroke:none;" d="M27 585C27.5311 595.37 34.5477 603.356 37 613C38.2821 609.578 36.568 607.324 35.5293 604C33.5637 597.709 32.0844 589.483 27 585z"/>
<path style="fill:#f1f1f1; stroke:none;" d="M628 618C637.702 613.739 644.435 605.923 651.4 598.286C655.054 594.28 659.372 590.781 662 586C653.103 590.259 646.865 600.576 639.575 607.112C635.601 610.675 630.567 613.236 628 618M298 587C304.178 596.34 314.766 609.228 325 614C320.974 608.285 315.468 603.995 310.718 598.911C306.707 594.616 303.398 589.538 298 587M940 591C933.917 598.576 932.899 609.271 928.752 618C923.3 629.475 912.848 640.04 911 653C917.529 645.06 922.049 635.149 926.63 626.004C930.077 619.12 933.632 613.405 935.724 605.999C936.988 601.524 940.97 595.468 940 591z"/>
<path style="fill:#dfdfdf; stroke:none;" d="M656 592C652.891 596.014 649.096 599.335 647 604C651.428 600.779 655.222 596.729 658 592L656 592z"/>
<path style="fill:#dcdcdc; stroke:none;" d="M302 593C304.451 598.287 308.808 602.02 312.925 606.05C318.485 611.492 323.534 617.262 331 620C327.846 616.125 323.617 613.412 320 609.961C314.115 604.345 308.628 597.703 302 593z"/>
<path style="fill:#e1e1e1; stroke:none;" d="M934 602C930.736 608.122 927.529 615.237 926 622C929.953 618.235 934.959 607.473 934 602z"/>
<path style="fill:#d6d6d6; stroke:none;" d="M931 605C927.592 612.672 923.417 619.631 922 628C926.461 624.245 932.566 610.707 931 605z"/>
<path style="fill:#dbdbdb; stroke:none;" d="M625 623C631.733 620.092 637.57 614.798 642 609C635.769 611.638 628.201 616.911 625 623z"/>
<path style="fill:#e4e4e4; stroke:none;" d="M38 613C40.4942 627.044 50.2729 640.411 58 652C58.6019 648.317 56.0917 645.144 54.2701 642C51.6314 637.446 48.6923 632.871 46.6682 628C44.5537 622.911 43.0232 615.759 38 613z"/>
<path style="fill:#f4f4f4; stroke:none;" d="M325 614C328.415 618.182 333.012 620.992 338 623C335.461 617.962 330.311 615.342 325 614z"/>
<path style="fill:#eaeaea; stroke:none;" d="M623 623C624.861 622.16 626.334 621.202 628 620C625.184 619.389 624.325 620.556 623 623z"/>
<path style="fill:#e2e2e2; stroke:none;" d="M331 620C336.573 625.86 344.505 630.982 352 634C347.802 627.2 338.668 621.909 331 620z"/>
<path style="fill:#d8d8d8; stroke:none;" d="M569 654C583.671 648.643 596.739 642.834 610 634.333C615.493 630.811 621.044 628.371 625 623C618.243 623.987 613.432 629.357 608 633.138C600.714 638.21 591.926 642.775 583.911 646.523C579.156 648.747 571.876 649.436 569 654z"/>
<path style="fill:#f1f1f1; stroke:none;" d="M588 642C591.241 642.864 593.949 641.122 597 639.883C605.586 636.399 612.546 630.359 620 625C615.739 624.307 612.426 627.765 609.015 630.002C602.285 634.414 595.009 638.062 588 642z"/>
<path style="fill:#dddddd; stroke:none;" d="M352 634C358.204 640.061 367.263 645.929 376 647C370.209 641.909 359.507 635.723 352 634z"/>
<path style="fill:#f0f0f0; stroke:none;" d="M358 636C362.788 640.728 369.638 643.94 376 646C372.775 641.355 363.444 637.367 358 636z"/>
<path style="fill:#dadada; stroke:none;" d="M916 638C914.952 639.856 914.487 640.944 914 643C915.848 641.22 916.566 640.509 916 638z"/>
<path style="fill:#f6f6f6; stroke:none;" d="M546 658C555.508 660.887 566.381 653.279 575.004 650.35C579.745 648.739 585.313 647.395 588 643C579.802 644.859 571.961 649.677 564 652.495C558.129 654.574 551.542 655.332 546 658z"/>
<path style="fill:#dadada; stroke:none;" d="M913 644C909.199 649.489 904.43 655.412 903 662C906.967 658.106 914.269 649.844 913 644z"/>
<path style="fill:#d6d6d6; stroke:none;" d="M376 647C380.659 653.12 389.786 655.086 397 657C392.715 652.603 382.039 648.516 376 647z"/>
<path style="fill:#f3f3f3; stroke:none;" d="M379 647C383.787 652.181 396.951 656.224 404 657C397.807 651.353 386.978 649.177 379 647z"/>
<path style="fill:#e4e4e4; stroke:none;" d="M386 651C387.978 652.732 389.435 653.402 392 654C390.022 652.268 388.566 651.598 386 651z"/>
<path style="fill:#dddddd; stroke:none;" d="M59 652C61.3096 659.796 66.4363 668.168 73 673C69.9414 666.136 64.4882 657.22 59 652z"/>
<path style="fill:#e6e6e6; stroke:none;" d="M910 653C902.269 660.656 894.394 673.08 890 683C896.809 677.945 901.076 669.066 905.691 662.039C907.575 659.172 910.497 656.511 910 653z"/>
<path style="fill:#e3e3e3; stroke:none;" d="M395 654C396.717 655.84 397.566 656.349 400 657C398.372 655.257 397.303 654.617 395 654z"/>
<path style="fill:#d6d6d6; stroke:none;" d="M525 666C530.69 667.75 537.596 665.275 543 663.38C550.972 660.584 560.701 657.08 569 656L569 654C564.232 654.343 560.55 656.881 556 658.1C548.886 660.006 541.897 662.668 534.83 664.53C531.579 665.387 528.257 665.037 525 666z"/>
<path style="fill:#dfdfdf; stroke:none;" d="M400 657C413.623 663.329 429.923 667.99 445 668C440.485 664.898 434.299 665.155 429.09 663.741C419.944 661.258 409.579 657.087 400 657z"/>
<path style="fill:#e1e1e1; stroke:none;" d="M503 668C509.461 670.71 519.5 667.881 526 666.015C529.215 665.092 532.531 665.391 535.714 664.53C543.547 662.412 550.839 659.055 559 658C553.97 655.948 548.108 658.76 543 659.74C529.77 662.279 516.595 667.85 503 668z"/>
<path style="fill:#f5f5f5; stroke:none;" d="M513 665C518.408 667.264 524.404 664.457 530 664C524.982 661.914 518.212 664.029 513 665z"/>
<path style="fill:#eeeeee; stroke:none;" d="M64 664C65.9631 668.637 68.9241 672.068 73 675C70.9718 670.572 67.8613 666.953 64 664z"/>
<path style="fill:#f0f0f0; stroke:none;" d="M433 664C441.703 668.628 454.31 668.999 464 669C479.696 669.001 495.375 668.129 511 668C502.86 664.584 491.617 667.997 483 668C472.819 668.004 462.126 667.842 452 666.829C445.541 666.184 439.549 664.054 433 664z"/>
<path style="fill:#d6d6d6; stroke:none;" d="M457 669L457 671L492 672L492 669L457 669z"/>
<path style="fill:#dcdcdc; stroke:none;" d="M897 669C894.248 672.848 891.244 676.387 890 681C894.023 677.852 896.741 673.559 899 669L897 669z"/>
<path style="fill:#dadada; stroke:none;" d="M73 673C75.0241 677.788 78.5147 681.625 81.2909 685.999C86.8794 694.805 92.8515 705.367 101 712C97.4177 702.687 89.2259 694.32 83.6667 686C80.6371 681.466 77.7288 675.861 73 673z"/>
<path style="fill:#e7e7e7; stroke:none;" d="M73 675C74.2229 679.506 77.4241 683.091 81 686C79.2952 681.568 76.6783 677.995 73 675z"/>
<path style="fill:#dbdbdb; stroke:none;" d="M888 683C882.6 690.775 874.403 696.433 872 706C878.702 699.997 885.732 690.947 890 683L888 683z"/>
<path style="fill:#e7e7e7; stroke:none;" d="M90 699C91.5892 704.834 96.2474 710.354 101 714C98.6191 708.368 94.4215 703.202 90 699z"/>
<path style="fill:#d9d9d9; stroke:none;" d="M869 707C867.193 710.054 864.966 712.568 864 716C867.228 713.447 869.322 710.759 871 707L869 707z"/>
<path style="fill:#dddddd; stroke:none;" d="M101 712C102.738 718.701 108.16 723.184 111.611 729C117.527 738.969 124.42 747.655 131.102 757C134.952 762.384 137.589 767.862 143 772C137.265 758.43 125.956 747.936 117.67 736C112.11 727.991 108.501 718.681 101 712z"/>
<path style="fill:#f2f2f2; stroke:none;" d="M866 713C859.994 723.441 848.84 732.608 845 744C852.418 739.673 855.852 732.039 860.312 725C862.904 720.911 866.036 717.465 868 713L866 713z"/>
<path style="fill:#eaeaea; stroke:none;" d="M101 715C101.932 718.334 103.243 719.913 106 722C104.815 718.943 103.518 717.096 101 715z"/>
<path style="fill:#dddddd; stroke:none;" d="M804 799C811.852 791.184 816.547 780.482 823.229 771.804C832.59 759.647 841.681 747.5 850.775 735.17C855.374 728.935 860.835 723.145 864 716C856.873 719.692 852.047 730.257 847.166 736.576C836 751.031 824.482 765.523 814.384 780.754C810.467 786.663 805.802 792.004 804 799z"/>
<path style="fill:#e7e7e7; stroke:none;" d="M106 722C107.613 725.809 109.721 728.484 113 731C111.387 727.191 109.279 724.516 106 722z"/>
<path style="fill:#f4f4f4; stroke:none;" d="M117 739L123 750C124.431 745.437 120.337 741.702 117 739z"/>
<path style="fill:#f0f0f0; stroke:none;" d="M843 744C841.564 749.34 837.279 752.735 834.011 757.039C828.061 764.877 822.752 772.911 817.164 780.911C813.797 785.732 809.839 789.229 808 795C818.262 785.596 825.754 772.385 833.66 761.001C837.637 755.273 842.852 750.772 845 744L843 744z"/>
<path style="fill:#ececec; stroke:none;" d="M129 754C129.465 755.894 130.066 757.277 131 759C131.566 756.491 130.848 755.78 129 754z"/>
<path style="fill:#eeeeee; stroke:none;" d="M134 763C135.787 767.961 139.877 771.789 143 776C143.689 770.866 137.828 765.818 134 763z"/>
<path style="fill:#efefef; stroke:none;" d="M144 776C145.288 779.539 147.088 782.755 149 786C150.405 781.667 147.278 778.539 144 776z"/>
<path style="fill:#e4e4e4; stroke:none;" d="M150 783C151.867 789.852 158.537 797.553 164 802C161.259 794.875 155.618 788.115 150 783z"/>
<path style="fill:#efefef; stroke:none;" d="M158 796C159.441 799.726 161.814 802.679 164 806C164.86 801.796 161.078 798.492 158 796z"/>
<path style="fill:#ededed; stroke:none;" d="M802 799C795.696 808.929 784.757 818.927 781 830C790.183 822.03 798.302 809.696 804 799L802 799z"/>
<path style="fill:#d5d5d5; stroke:none;" d="M164 802C170.079 811.763 176.909 824.887 186 832C183.167 824.527 177.181 818.739 173.001 812C170.583 808.103 168.509 803.525 164 802z"/>
<path style="fill:#e2e2e2; stroke:none;" d="M165 804C166.086 807.199 167.348 808.911 170 811C168.758 808.072 167.37 806.122 165 804z"/>
<path style="fill:#f6f6f6; stroke:none;" d="M166 808C167.825 813.256 171.479 816.786 174.584 821.286C177.985 826.215 180.791 832.817 186 836C185.176 830.564 181.557 828.159 178.506 823.911C174.373 818.154 172.117 812.071 166 808z"/>
<path style="fill:#d9d9d9; stroke:none;" d="M793 809C787.727 815.961 782.74 823.095 777.385 830C773.152 835.459 767.76 841.214 766 848C772.659 842.5 777.67 834.033 782.619 827C786.827 821.019 792.032 815.757 795 809L793 809z"/>
<path style="fill:#e5e5e5; stroke:none;" d="M177 821C177.806 823.892 178.677 825.094 181 827C179.953 824.534 178.884 822.904 177 821z"/>
<path style="fill:#dedede; stroke:none;" d="M186 834C187.508 837.927 189.959 841.322 192 845C193.467 840.364 189.456 836.653 186 834z"/>
<path style="fill:#ebebeb; stroke:none;" d="M775 836C770.976 841.619 767.168 847.488 762.779 852.83C757.234 859.581 750.679 866.537 748 875C751.312 871.943 753.262 867.963 756.028 864.424C760.582 858.597 765.763 853.116 769.914 847C772.097 843.783 775.545 839.97 775 836z"/>
<path style="fill:#d6d6d6; stroke:none;" d="M193 845C203.576 858.033 211.125 872.899 221.6 886C225.202 890.504 228.409 895.479 233 899C230.649 892.921 225.821 888.282 222.1 883C216.112 874.499 210.713 865.7 205.096 857C202.175 852.476 198.585 845.957 193 845z"/>
<path style="fill:#e5e5e5; stroke:none;" d="M195 847C196.809 852.453 200.564 857.389 205 861C202.954 855.682 199.253 850.775 195 847z"/>
<path style="fill:#f5f5f5; stroke:none;" d="M196 851C197.865 855.848 200.884 859.843 205 863C203.019 858.314 199.943 854.21 196 851z"/>
<path style="fill:#f6f6f6; stroke:none;" d="M205 863C205.839 868.32 211.443 876.189 216 879C213.215 872.886 210.118 867.473 205 863z"/>
<path style="fill:#dbdbdb; stroke:none;" d="M752 864C737.558 884.681 722.586 905.043 707.081 924.975C701.491 932.162 696.165 939.509 690.84 946.911C687.825 951.101 684.36 954.958 683 960C689.091 955.405 693.516 947.188 698.039 941.015C704.672 931.961 711.507 923.277 717.904 914C729.556 897.099 744.32 882.187 754 864L752 864z"/>
<path style="fill:#f8f8f8; stroke:none;" d="M703 937C713.292 928.986 719.911 915.692 727.29 905.12C734.344 895.013 742.168 885.374 749 875C742.242 878.303 739.722 886.191 735.23 891.871C732.59 895.21 729.213 897.794 726.696 901.286C722.858 906.611 720.267 912.609 716.23 917.911C711.542 924.069 705.308 929.373 703 937z"/>
<path style="fill:#efefef; stroke:none;" d="M218 882C220.558 888.043 225.323 892.736 229.026 898.089C230.806 900.662 231.603 903.854 233.609 906.25C238.512 912.107 244.865 918.422 247 926L252 928C247.945 918.404 240.572 911.278 234.669 902.961C229.544 895.738 225.148 887.471 218 882z"/>
<path style="fill:#eaeaea; stroke:none;" d="M737 886C735.6 889.015 734.004 891.825 733 895C735.821 892.395 737.482 889.517 739 886L737 886z"/>
<path style="fill:#e0e0e0; stroke:none;" d="M233 899C233.745 902.698 235.049 904.663 238 907C236.822 903.793 235.451 901.383 233 899z"/>
<path style="fill:#ececec; stroke:none;" d="M722 908C718.477 911.916 715.599 915.949 714 921C716.95 918.277 722.95 912.123 722 908z"/>
<path style="fill:#dbdbdb; stroke:none;" d="M246 919L253 929C253.613 924.529 249.741 920.9 246 919z"/>
<path style="fill:#e1e1e1; stroke:none;" d="M255 932C257.442 937.768 262.186 941.791 265.544 947C272.885 958.387 280.4 973.418 291 982C288.364 974.759 282.915 969.33 278.665 963.004C271.709 952.649 265.279 939.393 255 932z"/>
<path style="fill:#ebebeb; stroke:none;" d="M691 951C696.143 947.204 699.853 941.524 703 936C697.623 938.747 693.42 945.563 691 951z"/>
<path style="fill:#ececec; stroke:none;" d="M258 938C259.981 942.444 263.325 945.955 266 950C266.995 945.132 261.616 940.662 258 938z"/>
<path style="fill:#f4f4f4; stroke:none;" d="M689 951C687.049 955.982 683.365 959.767 682 965C686.559 961.346 689.454 956.6 691 951L689 951z"/>
<path style="fill:#f2f2f2; stroke:none;" d="M270 955C271.817 959.378 274.258 963.072 278 966C276.183 961.622 273.742 957.928 270 955z"/>
<path style="fill:#dfdfdf; stroke:none;" d="M672 975C677.201 971.051 681.725 966.589 683 960C677.561 962.763 673.502 969.161 672 975z"/>
<path style="fill:#f0f0f0; stroke:none;" d="M280 970C283.36 977.549 290.383 987.026 297 992C293.853 984.187 287.118 974.562 280 970z"/>
<path style="fill:#f6f6f6; stroke:none;" d="M673 973C667.687 982.925 657.398 991.358 654 1002C662.573 994.172 670.082 983.521 675 973L673 973z"/>
<path style="fill:#dedede; stroke:none;" d="M670 975C659.129 993.707 643.33 1009.63 631.657 1027.91C628.599 1032.7 624.812 1036.49 623 1042C627.757 1037.76 630.35 1031.12 636 1028C638.414 1018.62 646.38 1012 652.154 1004.74C654.286 1002.06 655.453 998.741 657.532 996C662.567 989.358 668.6 982.678 672 975L670 975M294 985C295.671 991.509 300.371 996.488 304 1002C305.13 996.679 297.669 988.636 294 985z"/>
<path style="fill:#ececec; stroke:none;" d="M304 1002C305.812 1008.67 311.471 1014.09 315 1020C316.906 1014.12 308.605 1005.12 304 1002z"/>
<path style="fill:#dbdbdb; stroke:none;" d="M306 1002C306.806 1004.89 307.677 1006.09 310 1008C308.953 1005.53 307.884 1003.9 306 1002z"/>
<path style="fill:#efefef; stroke:none;" d="M648 1007C643.964 1013.43 637.913 1019.57 636 1027C641.568 1021.48 646.309 1013.91 650 1007L648 1007z"/>
<path style="fill:#dfdfdf; stroke:none;" d="M316 1017C317.325 1022.09 320.908 1025.83 324 1030C324.673 1025.09 319.361 1020.19 316 1017z"/>
<path style="fill:#dbdbdb; stroke:none;" d="M326 1031C327.329 1037.7 332.064 1041.88 336.182 1047.01C341.337 1053.44 346.187 1060.3 351 1067C351.586 1062.73 347.703 1059.25 345.235 1056C339.005 1047.8 333.681 1037.94 326 1031z"/>
<path style="fill:#efefef; stroke:none;" d="M332 1042C333.76 1046.55 336.747 1051.5 341 1054C338.917 1049.26 336.031 1045.26 332 1042z"/>
<path style="fill:#eaeaea; stroke:none;" d="M613 1055C617.75 1051.58 620.948 1046.95 624 1042C618.992 1044.54 615.26 1049.93 613 1055z"/>
<path style="fill:#e1e1e1; stroke:none;" d="M612 1054C606.365 1060.05 602.722 1067.3 597.566 1073.7C593.12 1079.22 586.821 1085.04 585 1092C594.127 1084.02 600.716 1074.24 606.8 1064C608.733 1060.75 612.897 1057.97 612 1054z"/>
<path style="fill:#ebebeb; stroke:none;" d="M610 1058C607.894 1061.3 605.994 1064.18 605 1068C608.178 1065.23 610.28 1061.84 612 1058L610 1058z"/>
<path style="fill:#f1f1f1; stroke:none;" d="M346 1060C346.683 1069.5 355.548 1076.94 361.016 1084.13C366.041 1090.73 369.806 1098.31 374.718 1105C377.854 1109.27 380.83 1116.14 386 1118C386.911 1123.91 391.568 1127.59 395.157 1132.09C401.404 1139.93 405.952 1150.95 414 1157C406.805 1139.14 391.144 1124.2 380.206 1108.58C372.358 1097.36 365.074 1086 356.924 1075C353.217 1069.99 350.473 1064.4 346 1060z"/>
<path style="fill:#dbdbdb; stroke:none;" d="M352 1068C354.645 1072.95 357.515 1077.56 362 1081C360.08 1076.01 356.754 1070.6 352 1068z"/>
<path style="fill:#ececec; stroke:none;" d="M594 1081C581.807 1095 571.643 1109.82 560.964 1125C556.553 1131.27 550.451 1136.6 548 1144C555.272 1137.57 560.674 1128.89 566.208 1121C571.908 1112.87 578.167 1105.19 583.857 1097.09C587.001 1092.61 594.284 1086.63 594 1081z"/>
<path style="fill:#d9d9d9; stroke:none;" d="M369 1091C370.325 1096.09 373.908 1099.83 377 1104C377.673 1099.09 372.361 1094.19 369 1091z"/>
<path style="fill:#dadada; stroke:none;" d="M378 1104C379.173 1108.44 381.344 1111.25 385 1114C383.54 1109.94 381.951 1106.05 378 1104z"/>
<path style="fill:#d7d7d7; stroke:none;" d="M572 1106C565.789 1116.8 557.411 1126.58 550 1136.59C546.325 1141.55 541.966 1146.06 540 1152C545.645 1147.59 549.127 1140.88 553.508 1135.29C560.503 1126.35 569.944 1116.7 574 1106L572 1106z"/>
<path style="fill:#d9d9d9; stroke:none;" d="M385 1115C388.389 1121.08 392.58 1127.59 398 1132C395.685 1125.98 390.826 1117.98 385 1115z"/>
<path style="fill:#e6e6e6; stroke:none;" d="M546 1144C539.876 1153.62 528.92 1162.74 526 1174C530.589 1169.49 533.837 1163.76 537.615 1158.58C541.175 1153.69 545.129 1149.36 548 1144L546 1144z"/>
<path style="fill:#d7d7d7; stroke:none;" d="M411 1150C412.748 1156.73 418.256 1162.47 422.332 1168C427.415 1174.89 431.326 1182.41 438 1188C436.326 1181.49 431.618 1176.96 427.559 1171.83C421.935 1164.73 417.479 1156.35 411 1150z"/>
<path style="fill:#e8e8e8; stroke:none;" d="M417 1161C418.278 1165.69 421.173 1169.07 425 1172C423.181 1167.7 420.375 1164.21 417 1161z"/>
<path style="fill:#d9d9d9; stroke:none;" d="M530 1163C518.832 1178.24 507.584 1193.42 496.761 1208.91C492.035 1215.68 484.664 1221.63 483 1230C492.161 1220.9 498.388 1209.34 506.175 1199.07C514.97 1187.48 525.708 1176.25 532 1163L530 1163z"/>
<path style="fill:#f2f2f2; stroke:none;" d="M420 1167C421.732 1173.23 427.015 1177.82 430.52 1183.16C432.659 1186.41 433.43 1189.07 437 1191C433.418 1181.86 427.262 1173.61 420 1167z"/>
<path style="fill:#e2e2e2; stroke:none;" d="M434 1184C435.136 1188.37 437.442 1191.27 441 1194C439.361 1190.12 437.004 1186.95 434 1184z"/>
<path style="fill:#ebebeb; stroke:none;" d="M515 1187C508.506 1194.81 500.513 1203.35 497 1213C502.145 1208.6 505.648 1201.84 510 1196.58C512.309 1193.79 515.201 1190.7 515 1187z"/>
<path style="fill:#d9d9d9; stroke:none;" d="M438 1189C442.559 1196.55 447.083 1205.4 454 1211C451.633 1203.98 444.684 1192.42 438 1189z"/>
<path style="fill:#efefef; stroke:none;" d="M440 1194C440.99 1197.8 442.531 1200.12 446 1202C444.682 1198.53 443.199 1195.94 440 1194z"/>
<path style="fill:#e2e2e2; stroke:none;" d="M451 1209C454.878 1221.57 468.165 1230.49 473 1243L478 1243L483 1230C480.284 1231.79 478.93 1237.85 475.815 1238.37C472.452 1238.93 469.701 1233.26 468.298 1231C463.721 1223.61 457.998 1214.2 451 1209z"/>
<path style="fill:#f5f5f5; stroke:none;" d="M452 1212C454.419 1219.02 459.61 1227.06 466 1231C463.211 1224.41 457.343 1216.74 452 1212z"/>
</svg>
